<svg width="122" height="122" viewBox="0 0 122 122" fill="none" xmlns="http://www.w3.org/2000/svg">
<path d="M60.9526 94.8323C68.4735 94.8323 80.93 94.7383 95.2198 86.4653C109.509 78.1923 114.163 67.8981 115.62 62.5865C115.754 62.108 115.791 61.6074 115.728 61.1145C115.666 60.6215 115.505 60.1462 115.255 59.7166C115.005 59.287 114.671 58.912 114.274 58.6137C113.876 58.3153 113.423 58.0998 112.941 57.9799C109.509 57.0868 103.493 56.2877 95.7838 58.1209" stroke="black" stroke-width="5.63814" stroke-linecap="round" stroke-linejoin="round"/>
<path d="M26.1213 58.0763C18.4124 56.2901 12.3957 57.0892 8.96428 57.9823C8.48202 58.1022 8.02873 58.3177 7.63128 58.616C7.23383 58.9143 6.9003 59.2894 6.65045 59.719C6.4006 60.1485 6.23951 60.6239 6.17673 61.1169C6.11394 61.6098 6.15075 62.1104 6.28495 62.5888C7.74213 67.9005 12.3957 78.2417 26.6854 86.4677C40.9751 94.6937 53.4316 94.8347 60.9525 94.8347" stroke="black" stroke-width="5.63814" stroke-linecap="round" stroke-linejoin="round"/>
<path d="M60.9527 94.8331C60.9527 94.8331 79.7549 84.5859 79.7549 57.2286C79.7549 35.794 68.1915 24.8887 63.2089 21.1282C62.555 20.6472 61.7645 20.3877 60.9527 20.3877C60.1408 20.3877 59.3503 20.6472 58.6964 21.1282C53.7138 24.8887 42.1504 35.794 42.1504 57.2286C42.1504 84.5859 60.9527 94.8331 60.9527 94.8331Z" stroke="black" stroke-width="5.63814" stroke-linecap="round" stroke-linejoin="round"/>
<path d="M60.9526 94.8331C66.5933 93.611 81.7761 85.056 90.8952 69.2621C100.014 53.4682 97.7581 40.9176 95.9719 35.418C95.6987 34.5335 95.101 33.7851 94.2989 33.323C93.4968 32.8609 92.5495 32.7193 91.6473 32.9267C86.2503 34.1354 81.2014 36.5633 76.8876 40.0245" stroke="black" stroke-width="5.63814" stroke-linecap="round" stroke-linejoin="round"/>
<path d="M45.0175 40.0245C40.7036 36.5633 35.6548 34.1354 30.2577 32.9267C29.3556 32.7193 28.4083 32.8609 27.6062 33.323C26.804 33.7851 26.2064 34.5335 25.9332 35.418C24.147 40.9176 21.8907 53.5152 31.0098 69.2621C40.1289 85.009 55.3118 93.611 60.9524 94.8331" stroke="black" stroke-width="5.63814" stroke-linecap="round" stroke-linejoin="round"/>
</svg>
