<svg width="121" height="121" viewBox="0 0 121 121" fill="none" xmlns="http://www.w3.org/2000/svg">
<path d="M60.2893 84.996C70.6868 84.996 79.1156 76.5672 79.1156 66.1696C79.1156 55.7721 70.6868 47.3433 60.2893 47.3433C49.8917 47.3433 41.4629 55.7721 41.4629 66.1696C41.4629 76.5672 49.8917 84.996 60.2893 84.996Z" stroke="black" stroke-width="6.19856" stroke-linecap="round" stroke-linejoin="round"/>
<path d="M92.2949 54.8746C96.6803 54.8672 101.007 55.8847 104.929 57.8459C108.851 59.8071 112.261 62.6577 114.887 66.1704" stroke="black" stroke-width="6.19856" stroke-linecap="round" stroke-linejoin="round"/>
<path d="M5.69336 66.1704C8.3187 62.6577 11.7285 59.8071 15.6509 57.8459C19.5733 55.8847 23.8997 54.8672 28.285 54.8746" stroke="black" stroke-width="6.19856" stroke-linecap="round" stroke-linejoin="round"/>
<path d="M33.1787 101.94C35.6583 96.8625 39.5142 92.583 44.3072 89.5895C49.1002 86.5959 54.6376 85.0088 60.2887 85.0088C65.9397 85.0088 71.4772 86.5959 76.2702 89.5895C81.0632 92.583 84.9191 96.8625 87.3987 101.94" stroke="black" stroke-width="6.19856" stroke-linecap="round" stroke-linejoin="round"/>
<path d="M28.2859 54.8741C25.4273 54.877 22.6269 54.0664 20.2119 52.5368C17.797 51.0073 15.8671 48.8221 14.648 46.2365C13.4288 43.651 12.9706 40.7718 13.327 37.9355C13.6833 35.0993 14.8395 32.423 16.6604 30.2193C18.4812 28.0157 20.8916 26.3758 23.6099 25.4912C26.3282 24.6066 29.2421 24.5139 32.0111 25.2238C34.7801 25.9338 37.2899 27.4171 39.2472 29.5005C41.2046 31.5838 42.5286 34.1812 43.0646 36.9891" stroke="black" stroke-width="6.19856" stroke-linecap="round" stroke-linejoin="round"/>
<path d="M77.5176 36.9891C78.0536 34.1812 79.3776 31.5838 81.3349 29.5005C83.2922 27.4171 85.802 25.9338 88.571 25.2238C91.3401 24.5139 94.254 24.6066 96.9722 25.4912C99.6905 26.3758 102.101 28.0157 103.922 30.2193C105.743 32.423 106.899 35.0993 107.255 37.9355C107.612 40.7718 107.153 43.651 105.934 46.2365C104.715 48.8221 102.785 51.0073 100.37 52.5368C97.9552 54.0664 95.1549 54.877 92.2963 54.8741" stroke="black" stroke-width="6.19856" stroke-linecap="round" stroke-linejoin="round"/>
</svg>
