<svg width="157" height="157" viewBox="0 0 157 157" fill="none" xmlns="http://www.w3.org/2000/svg">
<rect x="0.0570068" y="0.33606" width="156.886" height="156" rx="12" fill="#F8FBFC"/>
<path d="M22.497 37.1701C22.497 37.3474 22.4877 37.4407 22.469 37.4501C22.4503 37.4594 22.3803 37.4034 22.259 37.2821L16.855 31.8501C16.799 31.7941 16.7523 31.7474 16.715 31.7101C16.687 31.6727 16.6637 31.6401 16.645 31.6121C16.6357 31.5747 16.6263 31.5327 16.617 31.4861C16.617 31.4394 16.617 31.3787 16.617 31.3041V30.9401C16.617 30.8654 16.617 30.8047 16.617 30.7581C16.6263 30.7114 16.6357 30.6741 16.645 30.6461C16.6637 30.6087 16.687 30.5714 16.715 30.5341C16.7523 30.4967 16.799 30.4501 16.855 30.3941L22.203 24.9621C22.3523 24.8127 22.4363 24.7427 22.455 24.7521C22.483 24.7614 22.497 24.8734 22.497 25.0881V25.6201C22.497 25.7134 22.4923 25.7881 22.483 25.8441C22.483 25.9001 22.4737 25.9467 22.455 25.9841C22.4457 26.0214 22.4223 26.0587 22.385 26.0961C22.357 26.1334 22.3103 26.1847 22.245 26.2501L17.653 30.9121C17.5503 31.0147 17.4943 31.0847 17.485 31.1221C17.485 31.1501 17.5317 31.2107 17.625 31.3041C17.989 31.6681 18.367 32.0507 18.759 32.4521C19.151 32.8441 19.5477 33.2454 19.949 33.6561C20.3503 34.0574 20.747 34.4587 21.139 34.8601C21.5403 35.2614 21.923 35.6441 22.287 36.0081C22.3897 36.1201 22.4503 36.1994 22.469 36.2461C22.4877 36.2927 22.497 36.4001 22.497 36.5681V37.1701ZM29.259 35.7421C29.259 35.8727 29.1937 35.9381 29.063 35.9381H28.503C28.3723 35.9381 28.307 35.8727 28.307 35.7421V31.9481C28.307 31.5001 28.2697 31.1221 28.195 30.8141C28.1203 30.4967 28.0037 30.2447 27.845 30.0581C27.6957 29.8621 27.523 29.7221 27.327 29.6381C27.131 29.5541 26.8883 29.5121 26.599 29.5121C26.0857 29.5121 25.6657 29.6941 25.339 30.0581C25.0123 30.4221 24.849 30.9261 24.849 31.5701V35.7421C24.849 35.8727 24.7837 35.9381 24.653 35.9381H24.093C23.9623 35.9381 23.897 35.8727 23.897 35.7421V25.8301C23.897 25.6994 23.9623 25.6341 24.093 25.6341H24.653C24.7837 25.6341 24.849 25.6994 24.849 25.8301V29.6521C25.1103 29.3067 25.3903 29.0641 25.689 28.9241C25.997 28.7841 26.333 28.7141 26.697 28.7141C27.5277 28.7141 28.1623 28.9801 28.601 29.5121C29.0397 30.0441 29.259 30.8514 29.259 31.9341V35.7421ZM34.481 35.7981C34.481 35.9287 34.4157 35.9941 34.285 35.9941H33.711C33.5803 35.9941 33.515 35.9287 33.515 35.7981V27.5381C33.2257 27.7807 32.955 28.0094 32.703 28.2241C32.451 28.4387 32.185 28.6674 31.905 28.9101C31.8023 28.9941 31.709 28.9847 31.625 28.8821L31.345 28.5461C31.317 28.4994 31.303 28.4527 31.303 28.4061C31.303 28.3501 31.3263 28.3034 31.373 28.2661L33.543 26.4461C33.5803 26.4087 33.6363 26.3901 33.711 26.3901H34.089C34.285 26.3901 34.397 26.4087 34.425 26.4461C34.4623 26.4741 34.481 26.5861 34.481 26.7821V35.7981ZM37.603 36.5961C37.603 36.5121 37.603 36.4467 37.603 36.4001C37.603 36.3534 37.6077 36.3114 37.617 36.2741C37.6357 36.2367 37.659 36.1994 37.687 36.1621C37.7243 36.1247 37.771 36.0781 37.827 36.0221C38.191 35.6581 38.569 35.2754 38.961 34.8741C39.3623 34.4727 39.7637 34.0714 40.165 33.6701C40.5663 33.2594 40.963 32.8534 41.355 32.4521C41.7563 32.0507 42.139 31.6681 42.503 31.3041C42.587 31.2107 42.629 31.1501 42.629 31.1221C42.629 31.0847 42.5777 31.0147 42.475 30.9121L37.855 26.2361C37.7897 26.1707 37.7383 26.1194 37.701 26.0821C37.673 26.0447 37.6497 26.0074 37.631 25.9701C37.6217 25.9327 37.6123 25.8861 37.603 25.8301C37.603 25.7741 37.603 25.6994 37.603 25.6061V25.0601C37.603 24.8454 37.6123 24.7334 37.631 24.7241C37.659 24.7147 37.743 24.7847 37.883 24.9341L43.273 30.3941C43.329 30.4501 43.371 30.4967 43.399 30.5341C43.4363 30.5714 43.4597 30.6087 43.469 30.6461C43.4877 30.6741 43.497 30.7114 43.497 30.7581C43.5063 30.8047 43.511 30.8654 43.511 30.9401V31.3041C43.511 31.3787 43.5063 31.4394 43.497 31.4861C43.497 31.5327 43.4877 31.5747 43.469 31.6121C43.4597 31.6401 43.4363 31.6727 43.399 31.7101C43.371 31.7474 43.329 31.7941 43.273 31.8501L37.841 37.3101C37.7197 37.4314 37.6497 37.4874 37.631 37.4781C37.6123 37.4687 37.603 37.3754 37.603 37.1981V36.5961ZM50.035 35.9241C49.643 36.0827 49.1857 36.1621 48.663 36.1621C47.8137 36.1621 47.2677 35.9147 47.025 35.4201C46.8663 35.0841 46.787 34.4914 46.787 33.6421V30.0581H44.967C44.8363 30.0581 44.771 29.9927 44.771 29.8621V29.4421C44.771 29.3114 44.8363 29.2461 44.967 29.2461H46.787V27.2721C46.787 27.1321 46.8477 27.0621 46.969 27.0621H47.557C47.6783 27.0621 47.739 27.1321 47.739 27.2721V29.2461H49.993C50.1237 29.2461 50.189 29.3114 50.189 29.4421V29.8621C50.189 29.9927 50.1237 30.0581 49.993 30.0581H47.739V34.2721C47.739 34.9721 48.1217 35.3221 48.887 35.3221C49.2697 35.3221 49.6337 35.2427 49.979 35.0841C50.0257 35.0654 50.0677 35.0654 50.105 35.0841C50.1517 35.1027 50.175 35.1401 50.175 35.1961L50.203 35.6441C50.2217 35.7747 50.1657 35.8681 50.035 35.9241ZM57.259 35.7421C57.259 35.8727 57.1937 35.9381 57.063 35.9381H56.503C56.3723 35.9381 56.307 35.8727 56.307 35.7421V31.9481C56.307 31.5001 56.2697 31.1221 56.195 30.8141C56.1203 30.4967 56.0037 30.2447 55.845 30.0581C55.6957 29.8621 55.523 29.7221 55.327 29.6381C55.131 29.5541 54.8883 29.5121 54.599 29.5121C54.0857 29.5121 53.6657 29.6941 53.339 30.0581C53.0123 30.4221 52.849 30.9261 52.849 31.5701V35.7421C52.849 35.8727 52.7837 35.9381 52.653 35.9381H52.093C51.9623 35.9381 51.897 35.8727 51.897 35.7421V25.8301C51.897 25.6994 51.9623 25.6341 52.093 25.6341H52.653C52.7837 25.6341 52.849 25.6994 52.849 25.8301V29.6521C53.1103 29.3067 53.3903 29.0641 53.689 28.9241C53.997 28.7841 54.333 28.7141 54.697 28.7141C55.5277 28.7141 56.1623 28.9801 56.601 29.5121C57.0397 30.0441 57.259 30.8514 57.259 31.9341V35.7421ZM63.867 35.0701C63.9977 35.0701 64.063 35.1354 64.063 35.2661V35.7421C64.063 35.8727 63.9977 35.9381 63.867 35.9381H59.401C59.2703 35.9381 59.205 35.8727 59.205 35.7421V35.2661C59.205 35.1354 59.2703 35.0701 59.401 35.0701H61.193V29.7921H59.555C59.4243 29.7921 59.359 29.7267 59.359 29.5961V29.1201C59.359 28.9894 59.4243 28.9241 59.555 28.9241H62.005C62.1357 28.9241 62.201 28.9894 62.201 29.1201V35.0701H63.867ZM60.759 26.6561C60.759 26.4414 60.8337 26.2594 60.983 26.1101C61.1417 25.9514 61.3283 25.8721 61.543 25.8721C61.7577 25.8721 61.9397 25.9514 62.089 26.1101C62.2477 26.2594 62.327 26.4414 62.327 26.6561C62.327 26.8707 62.2477 27.0574 62.089 27.2161C61.9397 27.3654 61.7577 27.4401 61.543 27.4401C61.3283 27.4401 61.1417 27.3654 60.983 27.2161C60.8337 27.0574 60.759 26.8707 60.759 26.6561ZM66.331 35.0141C66.9283 35.2474 67.5443 35.3641 68.179 35.3641C68.711 35.3641 69.159 35.2334 69.523 34.9721C69.8963 34.7014 70.083 34.4307 70.083 34.1601C70.083 33.9081 69.9803 33.6887 69.775 33.5021C69.5697 33.3154 69.3177 33.1474 69.019 32.9981C68.7017 32.8301 68.389 32.6714 68.081 32.5221C67.7823 32.3634 67.479 32.2047 67.171 32.0461C66.8163 31.8687 66.555 31.6541 66.387 31.4021C66.2283 31.1407 66.149 30.8887 66.149 30.6461C66.149 30.3474 66.2143 30.0814 66.345 29.8481C66.4757 29.6147 66.653 29.4094 66.877 29.2321C67.101 29.0547 67.3717 28.9241 67.689 28.8401C68.0157 28.7467 68.361 28.7001 68.725 28.7001C69.061 28.7001 69.369 28.7187 69.649 28.7561C69.929 28.7934 70.2183 28.8587 70.517 28.9521C70.5823 28.9707 70.6337 28.9987 70.671 29.0361C70.7177 29.0734 70.7363 29.1201 70.727 29.1761L70.685 29.6241C70.6757 29.6987 70.643 29.7454 70.587 29.7641C70.5403 29.7827 70.4937 29.7827 70.447 29.7641C70.1763 29.6614 69.915 29.5914 69.663 29.5541C69.411 29.5167 69.131 29.4981 68.823 29.4981C67.6937 29.4981 67.129 29.8807 67.129 30.6461C67.129 30.7861 67.2037 30.9354 67.353 31.0941C67.5023 31.2434 67.759 31.3974 68.123 31.5561C68.4777 31.7241 68.795 31.8781 69.075 32.0181C69.3643 32.1487 69.6817 32.3074 70.027 32.4941C70.4377 32.7367 70.7177 32.9887 70.867 33.2501C71.0257 33.5114 71.105 33.8101 71.105 34.1461C71.105 34.4167 71.0257 34.6921 70.867 34.9721C70.7083 35.2521 70.4937 35.4761 70.223 35.6441C69.9617 35.8121 69.6583 35.9381 69.313 36.0221C68.9677 36.1154 68.6177 36.1621 68.263 36.1621C68.039 36.1621 67.8383 36.1574 67.661 36.1481C67.493 36.1387 67.3297 36.1247 67.171 36.1061C67.0217 36.0874 66.8677 36.0641 66.709 36.0361C66.5597 36.0081 66.401 35.9707 66.233 35.9241C66.0837 35.8774 66.0137 35.7981 66.023 35.6861L66.093 35.1401C66.121 35.0001 66.2003 34.9581 66.331 35.0141ZM84.867 35.0701C84.9977 35.0701 85.063 35.1354 85.063 35.2661V35.7421C85.063 35.8727 84.9977 35.9381 84.867 35.9381H80.401C80.2703 35.9381 80.205 35.8727 80.205 35.7421V35.2661C80.205 35.1354 80.2703 35.0701 80.401 35.0701H82.193V29.7921H80.555C80.4243 29.7921 80.359 29.7267 80.359 29.5961V29.1201C80.359 28.9894 80.4243 28.9241 80.555 28.9241H83.005C83.1357 28.9241 83.201 28.9894 83.201 29.1201V35.0701H84.867ZM81.759 26.6561C81.759 26.4414 81.8337 26.2594 81.983 26.1101C82.1417 25.9514 82.3283 25.8721 82.543 25.8721C82.7577 25.8721 82.9397 25.9514 83.089 26.1101C83.2477 26.2594 83.327 26.4414 83.327 26.6561C83.327 26.8707 83.2477 27.0574 83.089 27.2161C82.9397 27.3654 82.7577 27.4401 82.543 27.4401C82.3283 27.4401 82.1417 27.3654 81.983 27.2161C81.8337 27.0574 81.759 26.8707 81.759 26.6561ZM87.331 35.0141C87.9283 35.2474 88.5443 35.3641 89.179 35.3641C89.711 35.3641 90.159 35.2334 90.523 34.9721C90.8963 34.7014 91.083 34.4307 91.083 34.1601C91.083 33.9081 90.9803 33.6887 90.775 33.5021C90.5697 33.3154 90.3177 33.1474 90.019 32.9981C89.7017 32.8301 89.389 32.6714 89.081 32.5221C88.7823 32.3634 88.479 32.2047 88.171 32.0461C87.8163 31.8687 87.555 31.6541 87.387 31.4021C87.2283 31.1407 87.149 30.8887 87.149 30.6461C87.149 30.3474 87.2143 30.0814 87.345 29.8481C87.4757 29.6147 87.653 29.4094 87.877 29.2321C88.101 29.0547 88.3717 28.9241 88.689 28.8401C89.0157 28.7467 89.361 28.7001 89.725 28.7001C90.061 28.7001 90.369 28.7187 90.649 28.7561C90.929 28.7934 91.2183 28.8587 91.517 28.9521C91.5823 28.9707 91.6337 28.9987 91.671 29.0361C91.7177 29.0734 91.7363 29.1201 91.727 29.1761L91.685 29.6241C91.6757 29.6987 91.643 29.7454 91.587 29.7641C91.5403 29.7827 91.4937 29.7827 91.447 29.7641C91.1763 29.6614 90.915 29.5914 90.663 29.5541C90.411 29.5167 90.131 29.4981 89.823 29.4981C88.6937 29.4981 88.129 29.8807 88.129 30.6461C88.129 30.7861 88.2037 30.9354 88.353 31.0941C88.5023 31.2434 88.759 31.3974 89.123 31.5561C89.4777 31.7241 89.795 31.8781 90.075 32.0181C90.3643 32.1487 90.6817 32.3074 91.027 32.4941C91.4377 32.7367 91.7177 32.9887 91.867 33.2501C92.0257 33.5114 92.105 33.8101 92.105 34.1461C92.105 34.4167 92.0257 34.6921 91.867 34.9721C91.7083 35.2521 91.4937 35.4761 91.223 35.6441C90.9617 35.8121 90.6583 35.9381 90.313 36.0221C89.9677 36.1154 89.6177 36.1621 89.263 36.1621C89.039 36.1621 88.8383 36.1574 88.661 36.1481C88.493 36.1387 88.3297 36.1247 88.171 36.1061C88.0217 36.0874 87.8677 36.0641 87.709 36.0361C87.5597 36.0081 87.401 35.9707 87.233 35.9241C87.0837 35.8774 87.0137 35.7981 87.023 35.6861L87.093 35.1401C87.121 35.0001 87.2003 34.9581 87.331 35.0141ZM100.645 30.7021C100.645 30.3101 100.64 30.0021 100.631 29.7781C100.622 29.5447 100.608 29.3254 100.589 29.1201C100.589 28.9894 100.654 28.9241 100.785 28.9241H101.303C101.434 28.9241 101.499 28.9894 101.499 29.1201L101.485 29.7221C101.55 29.4234 101.681 29.1901 101.877 29.0221C102.073 28.8447 102.269 28.7561 102.465 28.7561C102.81 28.7561 103.086 28.8961 103.291 29.1761C103.506 29.4561 103.641 29.7874 103.697 30.1701C103.725 29.8621 103.828 29.5587 104.005 29.2601C104.182 28.9614 104.472 28.7934 104.873 28.7561C105.228 28.7561 105.508 28.8214 105.713 28.9521C105.918 29.0734 106.082 29.2507 106.203 29.4841C106.324 29.7174 106.408 29.9881 106.455 30.2961C106.502 30.6041 106.525 30.9307 106.525 31.2761V35.7421C106.525 35.8727 106.46 35.9381 106.329 35.9381H105.797C105.666 35.9381 105.601 35.8774 105.601 35.7561V31.4721C105.601 30.2401 105.354 29.6241 104.859 29.6241C104.672 29.6241 104.523 29.6987 104.411 29.8481C104.299 29.9974 104.215 30.1841 104.159 30.4081C104.112 30.6321 104.075 30.9121 104.047 31.2481C104.028 31.5841 104.024 31.9387 104.033 32.3121V35.7421C104.033 35.8727 103.968 35.9381 103.837 35.9381H103.333C103.202 35.9381 103.137 35.8727 103.137 35.7421V31.4721C103.109 30.2401 102.848 29.6241 102.353 29.6241C102.092 29.6241 101.891 29.8107 101.751 30.1841C101.62 30.5574 101.56 31.0941 101.569 31.7941V35.7421C101.569 35.8727 101.504 35.9381 101.373 35.9381H100.841C100.71 35.9381 100.645 35.8727 100.645 35.7421V30.7021ZM107.855 38.0101C107.743 37.9821 107.696 37.9121 107.715 37.8001L107.757 37.2821C107.757 37.1701 107.813 37.1374 107.925 37.1841C108.084 37.2401 108.256 37.2681 108.443 37.2681C108.639 37.2681 108.816 37.2447 108.975 37.1981C109.143 37.1514 109.269 37.0767 109.353 36.9741C109.456 36.8434 109.568 36.6287 109.689 36.3301C109.82 36.0314 109.946 35.6907 110.067 35.3081C109.647 34.1694 108.882 32.1067 107.771 29.1201C107.752 29.0734 107.752 29.0314 107.771 28.9941C107.79 28.9474 107.827 28.9241 107.883 28.9241H108.485C108.616 28.9241 108.709 28.9894 108.765 29.1201L110.529 34.0481L112.349 29.1201C112.396 28.9894 112.489 28.9241 112.629 28.9241H113.231C113.287 28.9241 113.324 28.9474 113.343 28.9941C113.362 29.0314 113.362 29.0734 113.343 29.1201L110.571 36.3721C110.468 36.6427 110.352 36.8854 110.221 37.1001C110.1 37.3147 109.974 37.4874 109.843 37.6181C109.675 37.7767 109.488 37.8934 109.283 37.9681C109.078 38.0521 108.863 38.0941 108.639 38.0941C108.499 38.0941 108.368 38.0894 108.247 38.0801C108.135 38.0707 108.004 38.0474 107.855 38.0101ZM16.925 43.1061C16.925 42.9847 16.9903 42.9241 17.121 42.9241H17.667C17.7977 42.9241 17.863 42.9847 17.863 43.1061V44.1281C18.2457 43.2321 18.899 42.7841 19.823 42.7841C20.2523 42.7841 20.6397 42.8867 20.985 43.0921C21.3397 43.2974 21.643 43.5961 21.895 43.9881C22.147 44.3707 22.3243 44.7861 22.427 45.2341C22.539 45.6821 22.595 46.1534 22.595 46.6481C22.595 47.5254 22.3523 48.3327 21.867 49.0701C21.3817 49.7981 20.7003 50.1621 19.823 50.1621C19.3563 50.1621 18.955 50.0454 18.619 49.8121C18.2923 49.5787 18.0403 49.2941 17.863 48.9581V51.8981C17.863 52.0194 17.7977 52.0801 17.667 52.0801H17.121C16.9903 52.0801 16.925 52.0194 16.925 51.8981V43.1061ZM21.601 46.4941C21.6103 46.2047 21.5823 45.8921 21.517 45.5561C21.4517 45.2107 21.3397 44.8887 21.181 44.5901C21.0317 44.2821 20.8403 44.0394 20.607 43.8621C20.3737 43.6847 20.0843 43.5961 19.739 43.5961C19.3937 43.5961 19.1043 43.6847 18.871 43.8621C18.6377 44.0394 18.4417 44.2821 18.283 44.5901C18.1337 44.8887 18.031 45.2107 17.975 45.5561C17.919 45.8921 17.891 46.2047 17.891 46.4941C17.891 46.7647 17.919 47.0774 17.975 47.4321C18.031 47.7774 18.1337 48.0994 18.283 48.3981C18.4417 48.6967 18.6377 48.9347 18.871 49.1121C19.1043 49.2894 19.3937 49.3781 19.739 49.3781C20.0843 49.3781 20.3737 49.2894 20.607 49.1121C20.8403 48.9347 21.0363 48.6967 21.195 48.3981C21.3537 48.0994 21.461 47.7774 21.517 47.4321C21.5823 47.0774 21.6103 46.7647 21.601 46.4941ZM28.503 46.4241C28.503 46.0601 28.461 45.7007 28.377 45.3461C28.293 44.9914 28.1623 44.6694 27.985 44.3801C27.6303 43.8201 27.1497 43.5401 26.543 43.5401C25.9083 43.5401 25.4277 43.8201 25.101 44.3801C24.9237 44.6694 24.793 44.9914 24.709 45.3461C24.6343 45.7007 24.597 46.0601 24.597 46.4241C24.597 46.8254 24.6343 47.2034 24.709 47.5581C24.7837 47.9127 24.9143 48.2161 25.101 48.4681C25.5117 49.0374 25.9923 49.3221 26.543 49.3221C27.187 49.3221 27.6677 49.0374 27.985 48.4681C28.1717 48.2161 28.3023 47.9127 28.377 47.5581C28.461 47.2034 28.503 46.8254 28.503 46.4241ZM29.469 46.4241C29.469 46.9374 29.4083 47.4227 29.287 47.8801C29.175 48.3281 28.9977 48.7061 28.755 49.0141C28.475 49.3781 28.153 49.6581 27.789 49.8541C27.425 50.0594 27.0097 50.1621 26.543 50.1621C26.0763 50.1621 25.661 50.0594 25.297 49.8541C24.933 49.6581 24.611 49.3781 24.331 49.0141C24.107 48.6781 23.9343 48.2907 23.813 47.8521C23.701 47.4134 23.645 46.9374 23.645 46.4241C23.645 45.3694 23.8737 44.5061 24.331 43.8341C24.863 43.0781 25.6003 42.7001 26.543 42.7001C27.019 42.7001 27.4343 42.7934 27.789 42.9801C28.153 43.1574 28.475 43.4421 28.755 43.8341C29.231 44.5154 29.469 45.3787 29.469 46.4241ZM34.313 49.0701C34.4437 49.0701 34.509 49.1354 34.509 49.2661V49.7421C34.509 49.8727 34.4437 49.9381 34.313 49.9381H31.163C31.0323 49.9381 30.967 49.8727 30.967 49.7421V49.2661C30.967 49.1354 31.0323 49.0701 31.163 49.0701H31.989V43.7921H30.911C30.7803 43.7921 30.715 43.7267 30.715 43.5961V43.1201C30.715 42.9894 30.7803 42.9241 30.911 42.9241H32.605C32.7357 42.9241 32.801 42.9894 32.801 43.1201V44.4921C33.3703 43.3161 34.1917 42.7281 35.265 42.7281C35.8157 42.7281 36.3103 42.8354 36.749 43.0501C36.8423 43.0874 36.8937 43.1341 36.903 43.1901C36.9123 43.2461 36.903 43.3067 36.875 43.3721L36.707 43.8761C36.679 43.9414 36.6417 43.9741 36.595 43.9741C36.5577 43.9647 36.5063 43.9414 36.441 43.9041C36.0303 43.7081 35.5917 43.6101 35.125 43.6101C34.3597 43.6474 33.753 44.0627 33.305 44.8561C33.053 45.3414 32.927 45.9761 32.927 46.7601V49.0701H34.313ZM43.035 49.9241C42.643 50.0827 42.1857 50.1621 41.663 50.1621C40.8137 50.1621 40.2677 49.9147 40.025 49.4201C39.8663 49.0841 39.787 48.4914 39.787 47.6421V44.0581H37.967C37.8363 44.0581 37.771 43.9927 37.771 43.8621V43.4421C37.771 43.3114 37.8363 43.2461 37.967 43.2461H39.787V41.2721C39.787 41.1321 39.8477 41.0621 39.969 41.0621H40.557C40.6783 41.0621 40.739 41.1321 40.739 41.2721V43.2461H42.993C43.1237 43.2461 43.189 43.3114 43.189 43.4421V43.8621C43.189 43.9927 43.1237 44.0581 42.993 44.0581H40.739V48.2721C40.739 48.9721 41.1217 49.3221 41.887 49.3221C42.2697 49.3221 42.6337 49.2427 42.979 49.0841C43.0257 49.0654 43.0677 49.0654 43.105 49.0841C43.1517 49.1027 43.175 49.1401 43.175 49.1961L43.203 49.6441C43.2217 49.7747 43.1657 49.8681 43.035 49.9241ZM49.951 39.6621C50.0537 39.7087 50.1003 39.7741 50.091 39.8581L50.007 40.3481C49.9977 40.4041 49.9743 40.4414 49.937 40.4601C49.8997 40.4694 49.8623 40.4647 49.825 40.4461C49.6757 40.3807 49.5123 40.3294 49.335 40.2921C49.167 40.2547 48.9943 40.2361 48.817 40.2361C48.2663 40.2361 47.9117 40.5114 47.753 41.0621C47.6877 41.2861 47.655 41.7761 47.655 42.5321V43.2461H50.105C50.2357 43.2461 50.301 43.3114 50.301 43.4421V43.8621C50.301 43.9927 50.2357 44.0581 50.105 44.0581H47.655V49.7421C47.655 49.8727 47.5897 49.9381 47.459 49.9381H46.913C46.7823 49.9381 46.717 49.8727 46.717 49.7421V44.0581H45.023C44.8923 44.0581 44.827 43.9927 44.827 43.8621V43.4421C44.827 43.3114 44.8923 43.2461 45.023 43.2461H46.717V42.6301C46.717 41.6127 46.8103 40.8801 46.997 40.4321C47.2863 39.7601 47.865 39.4241 48.733 39.4241C49.1717 39.4241 49.5777 39.5034 49.951 39.6621ZM56.503 46.4241C56.503 46.0601 56.461 45.7007 56.377 45.3461C56.293 44.9914 56.1623 44.6694 55.985 44.3801C55.6303 43.8201 55.1497 43.5401 54.543 43.5401C53.9083 43.5401 53.4277 43.8201 53.101 44.3801C52.9237 44.6694 52.793 44.9914 52.709 45.3461C52.6343 45.7007 52.597 46.0601 52.597 46.4241C52.597 46.8254 52.6343 47.2034 52.709 47.5581C52.7837 47.9127 52.9143 48.2161 53.101 48.4681C53.5117 49.0374 53.9923 49.3221 54.543 49.3221C55.187 49.3221 55.6677 49.0374 55.985 48.4681C56.1717 48.2161 56.3023 47.9127 56.377 47.5581C56.461 47.2034 56.503 46.8254 56.503 46.4241ZM57.469 46.4241C57.469 46.9374 57.4083 47.4227 57.287 47.8801C57.175 48.3281 56.9977 48.7061 56.755 49.0141C56.475 49.3781 56.153 49.6581 55.789 49.8541C55.425 50.0594 55.0097 50.1621 54.543 50.1621C54.0763 50.1621 53.661 50.0594 53.297 49.8541C52.933 49.6581 52.611 49.3781 52.331 49.0141C52.107 48.6781 51.9343 48.2907 51.813 47.8521C51.701 47.4134 51.645 46.9374 51.645 46.4241C51.645 45.3694 51.8737 44.5061 52.331 43.8341C52.863 43.0781 53.6003 42.7001 54.543 42.7001C55.019 42.7001 55.4343 42.7934 55.789 42.9801C56.153 43.1574 56.475 43.4421 56.755 43.8341C57.231 44.5154 57.469 45.3787 57.469 46.4241ZM63.755 49.0701C63.8857 49.0701 63.951 49.1354 63.951 49.2661V49.7421C63.951 49.8727 63.8857 49.9381 63.755 49.9381H59.219C59.0883 49.9381 59.023 49.8727 59.023 49.7421V49.2661C59.023 49.1354 59.0883 49.0701 59.219 49.0701H61.095V40.5161H59.611C59.4803 40.5161 59.415 40.4507 59.415 40.3201V39.8441C59.415 39.7134 59.4803 39.6481 59.611 39.6481H61.907C62.0377 39.6481 62.103 39.7134 62.103 39.8441V49.0701H63.755ZM70.867 49.0701C70.9977 49.0701 71.063 49.1354 71.063 49.2661V49.7421C71.063 49.8727 70.9977 49.9381 70.867 49.9381H66.401C66.2703 49.9381 66.205 49.8727 66.205 49.7421V49.2661C66.205 49.1354 66.2703 49.0701 66.401 49.0701H68.193V43.7921H66.555C66.4243 43.7921 66.359 43.7267 66.359 43.5961V43.1201C66.359 42.9894 66.4243 42.9241 66.555 42.9241H69.005C69.1357 42.9241 69.201 42.9894 69.201 43.1201V49.0701H70.867ZM67.759 40.6561C67.759 40.4414 67.8337 40.2594 67.983 40.1101C68.1417 39.9514 68.3283 39.8721 68.543 39.8721C68.7577 39.8721 68.9397 39.9514 69.089 40.1101C69.2477 40.2594 69.327 40.4414 69.327 40.6561C69.327 40.8707 69.2477 41.0574 69.089 41.2161C68.9397 41.3654 68.7577 41.4401 68.543 41.4401C68.3283 41.4401 68.1417 41.3654 67.983 41.2161C67.8337 41.0574 67.759 40.8707 67.759 40.6561ZM77.503 46.4241C77.503 46.0601 77.461 45.7007 77.377 45.3461C77.293 44.9914 77.1623 44.6694 76.985 44.3801C76.6303 43.8201 76.1497 43.5401 75.543 43.5401C74.9083 43.5401 74.4277 43.8201 74.101 44.3801C73.9237 44.6694 73.793 44.9914 73.709 45.3461C73.6343 45.7007 73.597 46.0601 73.597 46.4241C73.597 46.8254 73.6343 47.2034 73.709 47.5581C73.7837 47.9127 73.9143 48.2161 74.101 48.4681C74.5117 49.0374 74.9923 49.3221 75.543 49.3221C76.187 49.3221 76.6677 49.0374 76.985 48.4681C77.1717 48.2161 77.3023 47.9127 77.377 47.5581C77.461 47.2034 77.503 46.8254 77.503 46.4241ZM78.469 46.4241C78.469 46.9374 78.4083 47.4227 78.287 47.8801C78.175 48.3281 77.9977 48.7061 77.755 49.0141C77.475 49.3781 77.153 49.6581 76.789 49.8541C76.425 50.0594 76.0097 50.1621 75.543 50.1621C75.0763 50.1621 74.661 50.0594 74.297 49.8541C73.933 49.6581 73.611 49.3781 73.331 49.0141C73.107 48.6781 72.9343 48.2907 72.813 47.8521C72.701 47.4134 72.645 46.9374 72.645 46.4241C72.645 45.3694 72.8737 44.5061 73.331 43.8341C73.863 43.0781 74.6003 42.7001 75.543 42.7001C76.019 42.7001 76.4343 42.7934 76.789 42.9801C77.153 43.1574 77.475 43.4421 77.755 43.8341C78.231 44.5154 78.469 45.3787 78.469 46.4241ZM85.497 51.1701C85.497 51.3474 85.4877 51.4407 85.469 51.4501C85.4503 51.4594 85.3803 51.4034 85.259 51.2821L79.855 45.8501C79.799 45.7941 79.7523 45.7474 79.715 45.7101C79.687 45.6727 79.6637 45.6401 79.645 45.6121C79.6357 45.5747 79.6263 45.5327 79.617 45.4861C79.617 45.4394 79.617 45.3787 79.617 45.3041V44.9401C79.617 44.8654 79.617 44.8047 79.617 44.7581C79.6263 44.7114 79.6357 44.6741 79.645 44.6461C79.6637 44.6087 79.687 44.5714 79.715 44.5341C79.7523 44.4967 79.799 44.4501 79.855 44.3941L85.203 38.9621C85.3523 38.8127 85.4363 38.7427 85.455 38.7521C85.483 38.7614 85.497 38.8734 85.497 39.0881V39.6201C85.497 39.7134 85.4923 39.7881 85.483 39.8441C85.483 39.9001 85.4737 39.9467 85.455 39.9841C85.4457 40.0214 85.4223 40.0587 85.385 40.0961C85.357 40.1334 85.3103 40.1847 85.245 40.2501L80.653 44.9121C80.5503 45.0147 80.4943 45.0847 80.485 45.1221C80.485 45.1501 80.5317 45.2107 80.625 45.3041C80.989 45.6681 81.367 46.0507 81.759 46.4521C82.151 46.8441 82.5477 47.2454 82.949 47.6561C83.3503 48.0574 83.747 48.4587 84.139 48.8601C84.5403 49.2614 84.923 49.6441 85.287 50.0081C85.3897 50.1201 85.4503 50.1994 85.469 50.2461C85.4877 50.2927 85.497 50.4001 85.497 50.5681V51.1701ZM91.853 39.6901C91.965 39.6901 92.0257 39.6994 92.035 39.7181C92.0537 39.7367 92.0443 39.7974 92.007 39.9001L88.101 50.4001C88.0637 50.4841 88.0357 50.5307 88.017 50.5401C87.9983 50.5587 87.9377 50.5681 87.835 50.5681H87.247C87.135 50.5681 87.0697 50.5587 87.051 50.5401C87.0417 50.5214 87.0557 50.4654 87.093 50.3721L90.999 39.8861C91.0363 39.7927 91.0643 39.7367 91.083 39.7181C91.111 39.6994 91.1857 39.6901 91.307 39.6901H91.853ZM99.259 49.7421C99.259 49.8727 99.1937 49.9381 99.063 49.9381H98.503C98.3723 49.9381 98.307 49.8727 98.307 49.7421V45.9481C98.307 45.5001 98.2697 45.1221 98.195 44.8141C98.1203 44.4967 98.0037 44.2447 97.845 44.0581C97.6957 43.8621 97.523 43.7221 97.327 43.6381C97.131 43.5541 96.8883 43.5121 96.599 43.5121C96.0857 43.5121 95.6657 43.6941 95.339 44.0581C95.0123 44.4221 94.849 44.9261 94.849 45.5701V49.7421C94.849 49.8727 94.7837 49.9381 94.653 49.9381H94.093C93.9623 49.9381 93.897 49.8727 93.897 49.7421V39.8301C93.897 39.6994 93.9623 39.6341 94.093 39.6341H94.653C94.7837 39.6341 94.849 39.6994 94.849 39.8301V43.6521C95.1103 43.3067 95.3903 43.0641 95.689 42.9241C95.997 42.7841 96.333 42.7141 96.697 42.7141C97.5277 42.7141 98.1623 42.9801 98.601 43.5121C99.0397 44.0441 99.259 44.8514 99.259 45.9341V49.7421ZM104.481 49.7981C104.481 49.9287 104.416 49.9941 104.285 49.9941H103.711C103.58 49.9941 103.515 49.9287 103.515 49.7981V41.5381C103.226 41.7807 102.955 42.0094 102.703 42.2241C102.451 42.4387 102.185 42.6674 101.905 42.9101C101.802 42.9941 101.709 42.9847 101.625 42.8821L101.345 42.5461C101.317 42.4994 101.303 42.4527 101.303 42.4061C101.303 42.3501 101.326 42.3034 101.373 42.2661L103.543 40.4461C103.58 40.4087 103.636 40.3901 103.711 40.3901H104.089C104.285 40.3901 104.397 40.4087 104.425 40.4461C104.462 40.4741 104.481 40.5861 104.481 40.7821V49.7981ZM107.603 50.5961C107.603 50.5121 107.603 50.4467 107.603 50.4001C107.603 50.3534 107.608 50.3114 107.617 50.2741C107.636 50.2367 107.659 50.1994 107.687 50.1621C107.724 50.1247 107.771 50.0781 107.827 50.0221C108.191 49.6581 108.569 49.2754 108.961 48.8741C109.362 48.4727 109.764 48.0714 110.165 47.6701C110.566 47.2594 110.963 46.8534 111.355 46.4521C111.756 46.0507 112.139 45.6681 112.503 45.3041C112.587 45.2107 112.629 45.1501 112.629 45.1221C112.629 45.0847 112.578 45.0147 112.475 44.9121L107.855 40.2361C107.79 40.1707 107.738 40.1194 107.701 40.0821C107.673 40.0447 107.65 40.0074 107.631 39.9701C107.622 39.9327 107.612 39.8861 107.603 39.8301C107.603 39.7741 107.603 39.6994 107.603 39.6061V39.0601C107.603 38.8454 107.612 38.7334 107.631 38.7241C107.659 38.7147 107.743 38.7847 107.883 38.9341L113.273 44.3941C113.329 44.4501 113.371 44.4967 113.399 44.5341C113.436 44.5714 113.46 44.6087 113.469 44.6461C113.488 44.6741 113.497 44.7114 113.497 44.7581C113.506 44.8047 113.511 44.8654 113.511 44.9401V45.3041C113.511 45.3787 113.506 45.4394 113.497 45.4861C113.497 45.5327 113.488 45.5747 113.469 45.6121C113.46 45.6401 113.436 45.6727 113.399 45.7101C113.371 45.7474 113.329 45.7941 113.273 45.8501L107.841 51.3101C107.72 51.4314 107.65 51.4874 107.631 51.4781C107.612 51.4687 107.603 51.3754 107.603 51.1981V50.5961Z" fill="#00545B"/>
<line x1="16.057" y1="63.8361" x2="140.943" y2="63.8361" stroke="black"/>
<path d="M18.703 87.8961C18.703 87.6627 18.787 87.4621 18.955 87.2941C19.123 87.1261 19.3237 87.0421 19.557 87.0421C19.7903 87.0421 19.9863 87.1261 20.145 87.2941C20.313 87.4621 20.397 87.6627 20.397 87.8961C20.397 88.1294 20.313 88.3301 20.145 88.4981C19.9863 88.6661 19.7903 88.7501 19.557 88.7501C19.3237 88.7501 19.123 88.6661 18.955 88.4981C18.787 88.3301 18.703 88.1294 18.703 87.8961ZM29.259 87.7421C29.259 87.8727 29.1937 87.9381 29.063 87.9381H28.503C28.3723 87.9381 28.307 87.8727 28.307 87.7421V83.9481C28.307 83.5001 28.2697 83.1221 28.195 82.8141C28.1203 82.4967 28.0037 82.2447 27.845 82.0581C27.6957 81.8621 27.523 81.7221 27.327 81.6381C27.131 81.5541 26.8883 81.5121 26.599 81.5121C26.0857 81.5121 25.6657 81.6941 25.339 82.0581C25.0123 82.4221 24.849 82.9261 24.849 83.5701V87.7421C24.849 87.8727 24.7837 87.9381 24.653 87.9381H24.093C23.9623 87.9381 23.897 87.8727 23.897 87.7421V77.8301C23.897 77.6994 23.9623 77.6341 24.093 77.6341H24.653C24.7837 77.6341 24.849 77.6994 24.849 77.8301V81.6521C25.1103 81.3067 25.3903 81.0641 25.689 80.9241C25.997 80.7841 26.333 80.7141 26.697 80.7141C27.5277 80.7141 28.1623 80.9801 28.601 81.5121C29.0397 82.0441 29.259 82.8514 29.259 83.9341V87.7421ZM34.481 87.7981C34.481 87.9287 34.4157 87.9941 34.285 87.9941H33.711C33.5803 87.9941 33.515 87.9287 33.515 87.7981V79.5381C33.2257 79.7807 32.955 80.0094 32.703 80.2241C32.451 80.4387 32.185 80.6674 31.905 80.9101C31.8023 80.9941 31.709 80.9847 31.625 80.8821L31.345 80.5461C31.317 80.4994 31.303 80.4527 31.303 80.4061C31.303 80.3501 31.3263 80.3034 31.373 80.2661L33.543 78.4461C33.5803 78.4087 33.6363 78.3901 33.711 78.3901H34.089C34.285 78.3901 34.397 78.4087 34.425 78.4461C34.4623 78.4741 34.481 78.5861 34.481 78.7821V87.7981ZM48.495 89.7581C48.0563 89.7581 47.6923 89.5994 47.403 89.2821C47.1043 88.9367 46.955 88.4934 46.955 87.9521V85.4181C46.955 84.8674 46.8617 84.4147 46.675 84.0601C46.6003 83.9107 46.5117 83.7941 46.409 83.7101C46.3063 83.6167 46.143 83.5467 45.919 83.5001C45.723 83.4627 45.6063 83.4254 45.569 83.3881C45.5317 83.3507 45.513 83.2761 45.513 83.1641V83.0241C45.513 82.9214 45.5363 82.8561 45.583 82.8281C45.639 82.7907 45.7557 82.7487 45.933 82.7021C46.297 82.5994 46.5443 82.4081 46.675 82.1281C46.8617 81.7734 46.955 81.3114 46.955 80.7421V78.2501C46.955 77.6994 47.109 77.2561 47.417 76.9201H47.403C47.6737 76.5934 48.0423 76.4301 48.509 76.4301H49.055C49.1857 76.4301 49.2603 76.4394 49.279 76.4581C49.307 76.4767 49.321 76.5514 49.321 76.6821V76.9061C49.321 77.0274 49.307 77.0974 49.279 77.1161C49.2603 77.1347 49.1857 77.1441 49.055 77.1441H48.593C48.1357 77.1441 47.907 77.6061 47.907 78.5301V80.9941C47.907 82.0767 47.473 82.7767 46.605 83.0941C47.473 83.4394 47.907 84.1581 47.907 85.2501V87.6581C47.907 88.5821 48.1357 89.0441 48.593 89.0441H49.083C49.2043 89.0441 49.2743 89.0534 49.293 89.0721C49.3117 89.0907 49.321 89.1607 49.321 89.2821V89.5201C49.321 89.6414 49.3117 89.7114 49.293 89.7301C49.2743 89.7487 49.1997 89.7581 49.069 89.7581H48.495ZM21.797 101.966C21.545 102.031 21.3163 102.073 21.111 102.092C20.9057 102.12 20.6443 102.134 20.327 102.134C19.7857 102.134 19.3003 102.036 18.871 101.84C18.451 101.653 18.0823 101.392 17.765 101.056C17.4477 100.72 17.2097 100.328 17.051 99.8801C16.8923 99.4227 16.813 98.9327 16.813 98.4101C16.813 97.8781 16.897 97.3881 17.065 96.9401C17.233 96.4921 17.471 96.1047 17.779 95.7781C18.087 95.4514 18.451 95.1947 18.871 95.0081C19.3003 94.8121 19.7857 94.7141 20.327 94.7141C20.6163 94.7141 20.8683 94.7281 21.083 94.7561C21.2977 94.7747 21.5403 94.8167 21.811 94.8821C21.9323 94.9101 21.9883 94.9894 21.979 95.1201L21.937 95.5961C21.9183 95.7081 21.853 95.7501 21.741 95.7221C21.517 95.6474 21.3023 95.5961 21.097 95.5681C20.901 95.5307 20.6863 95.5121 20.453 95.5121C20.061 95.5121 19.6923 95.5914 19.347 95.7501C19.011 95.8994 18.7357 96.1047 18.521 96.3661C18.3063 96.6274 18.1383 96.9354 18.017 97.2901C17.905 97.6354 17.849 98.0087 17.849 98.4101C17.849 98.7741 17.9097 99.1334 18.031 99.4881C18.1523 99.8334 18.3157 100.146 18.521 100.426C18.7357 100.697 19.011 100.916 19.347 101.084C19.6923 101.252 20.061 101.336 20.453 101.336C20.6863 101.336 20.8963 101.322 21.083 101.294C21.2697 101.266 21.4843 101.21 21.727 101.126C21.8297 101.098 21.8997 101.131 21.937 101.224L21.979 101.728C21.9883 101.859 21.9277 101.938 21.797 101.966ZM28.503 98.4241C28.503 98.0601 28.461 97.7007 28.377 97.3461C28.293 96.9914 28.1623 96.6694 27.985 96.3801C27.6303 95.8201 27.1497 95.5401 26.543 95.5401C25.9083 95.5401 25.4277 95.8201 25.101 96.3801C24.9237 96.6694 24.793 96.9914 24.709 97.3461C24.6343 97.7007 24.597 98.0601 24.597 98.4241C24.597 98.8254 24.6343 99.2034 24.709 99.5581C24.7837 99.9127 24.9143 100.216 25.101 100.468C25.5117 101.037 25.9923 101.322 26.543 101.322C27.187 101.322 27.6677 101.037 27.985 100.468C28.1717 100.216 28.3023 99.9127 28.377 99.5581C28.461 99.2034 28.503 98.8254 28.503 98.4241ZM29.469 98.4241C29.469 98.9374 29.4083 99.4227 29.287 99.8801C29.175 100.328 28.9977 100.706 28.755 101.014C28.475 101.378 28.153 101.658 27.789 101.854C27.425 102.059 27.0097 102.162 26.543 102.162C26.0763 102.162 25.661 102.059 25.297 101.854C24.933 101.658 24.611 101.378 24.331 101.014C24.107 100.678 23.9343 100.291 23.813 99.8521C23.701 99.4134 23.645 98.9374 23.645 98.4241C23.645 97.3694 23.8737 96.5061 24.331 95.8341C24.863 95.0781 25.6003 94.7001 26.543 94.7001C27.019 94.7001 27.4343 94.7934 27.789 94.9801C28.153 95.1574 28.475 95.4421 28.755 95.8341C29.231 96.5154 29.469 97.3787 29.469 98.4241ZM35.755 101.07C35.8857 101.07 35.951 101.135 35.951 101.266V101.742C35.951 101.873 35.8857 101.938 35.755 101.938H31.219C31.0883 101.938 31.023 101.873 31.023 101.742V101.266C31.023 101.135 31.0883 101.07 31.219 101.07H33.095V92.5161H31.611C31.4803 92.5161 31.415 92.4507 31.415 92.3201V91.8441C31.415 91.7134 31.4803 91.6481 31.611 91.6481H33.907C34.0377 91.6481 34.103 91.7134 34.103 91.8441V101.07H35.755ZM42.503 98.4241C42.503 98.0601 42.461 97.7007 42.377 97.3461C42.293 96.9914 42.1623 96.6694 41.985 96.3801C41.6303 95.8201 41.1497 95.5401 40.543 95.5401C39.9083 95.5401 39.4277 95.8201 39.101 96.3801C38.9237 96.6694 38.793 96.9914 38.709 97.3461C38.6343 97.7007 38.597 98.0601 38.597 98.4241C38.597 98.8254 38.6343 99.2034 38.709 99.5581C38.7837 99.9127 38.9143 100.216 39.101 100.468C39.5117 101.037 39.9923 101.322 40.543 101.322C41.187 101.322 41.6677 101.037 41.985 100.468C42.1717 100.216 42.3023 99.9127 42.377 99.5581C42.461 99.2034 42.503 98.8254 42.503 98.4241ZM43.469 98.4241C43.469 98.9374 43.4083 99.4227 43.287 99.8801C43.175 100.328 42.9977 100.706 42.755 101.014C42.475 101.378 42.153 101.658 41.789 101.854C41.425 102.059 41.0097 102.162 40.543 102.162C40.0763 102.162 39.661 102.059 39.297 101.854C38.933 101.658 38.611 101.378 38.331 101.014C38.107 100.678 37.9343 100.291 37.813 99.8521C37.701 99.4134 37.645 98.9374 37.645 98.4241C37.645 97.3694 37.8737 96.5061 38.331 95.8341C38.863 95.0781 39.6003 94.7001 40.543 94.7001C41.019 94.7001 41.4343 94.7934 41.789 94.9801C42.153 95.1574 42.475 95.4421 42.755 95.8341C43.231 96.5154 43.469 97.3787 43.469 98.4241ZM48.313 101.07C48.4437 101.07 48.509 101.135 48.509 101.266V101.742C48.509 101.873 48.4437 101.938 48.313 101.938H45.163C45.0323 101.938 44.967 101.873 44.967 101.742V101.266C44.967 101.135 45.0323 101.07 45.163 101.07H45.989V95.7921H44.911C44.7803 95.7921 44.715 95.7267 44.715 95.5961V95.1201C44.715 94.9894 44.7803 94.9241 44.911 94.9241H46.605C46.7357 94.9241 46.801 94.9894 46.801 95.1201V96.4921C47.3703 95.3161 48.1917 94.7281 49.265 94.7281C49.8157 94.7281 50.3103 94.8354 50.749 95.0501C50.8423 95.0874 50.8937 95.1341 50.903 95.1901C50.9123 95.2461 50.903 95.3067 50.875 95.3721L50.707 95.8761C50.679 95.9414 50.6417 95.9741 50.595 95.9741C50.5577 95.9647 50.5063 95.9414 50.441 95.9041C50.0303 95.7081 49.5917 95.6101 49.125 95.6101C48.3597 95.6474 47.753 96.0627 47.305 96.8561C47.053 97.3414 46.927 97.9761 46.927 98.7601V101.07H48.313ZM53.591 94.4481C53.591 94.1961 53.6843 93.9767 53.871 93.7901C54.067 93.5941 54.2957 93.4961 54.557 93.4961C54.809 93.4961 55.033 93.5941 55.229 93.7901C55.425 93.9767 55.523 94.1961 55.523 94.4481C55.523 94.7187 55.425 94.9474 55.229 95.1341C55.033 95.3207 54.809 95.4141 54.557 95.4141C54.2957 95.4141 54.067 95.3207 53.871 95.1341C53.6843 94.9474 53.591 94.7187 53.591 94.4481ZM53.591 99.9361C53.591 99.6654 53.6843 99.4367 53.871 99.2501C54.067 99.0634 54.2957 98.9701 54.557 98.9701C54.809 98.9701 55.033 99.0634 55.229 99.2501C55.425 99.4367 55.523 99.6654 55.523 99.9361C55.523 100.188 55.425 100.412 55.229 100.608C55.033 100.795 54.809 100.888 54.557 100.888C54.2957 100.888 54.067 100.795 53.871 100.608C53.6843 100.412 53.591 100.188 53.591 99.9361ZM69.383 95.8901H68.235L67.871 98.2701H69.005L69.383 95.8901ZM71.721 95.6661C71.721 95.7781 71.7117 95.8434 71.693 95.8621C71.6743 95.8807 71.609 95.8901 71.497 95.8901H70.265L69.887 98.2701H70.993C71.1237 98.2701 71.1983 98.2794 71.217 98.2981C71.2357 98.3167 71.245 98.3774 71.245 98.4801V98.8441C71.245 98.9561 71.2357 99.0214 71.217 99.0401C71.1983 99.0587 71.1237 99.0681 70.993 99.0681H69.775L69.383 101.644C69.3643 101.756 69.3457 101.817 69.327 101.826C69.3083 101.845 69.243 101.854 69.131 101.854H68.725C68.5943 101.854 68.5197 101.845 68.501 101.826C68.4823 101.817 68.4823 101.756 68.501 101.644L68.893 99.0681H67.759L67.367 101.658C67.3483 101.761 67.325 101.817 67.297 101.826C67.2783 101.845 67.2037 101.854 67.073 101.854H66.695C66.5643 101.854 66.4897 101.845 66.471 101.826C66.4523 101.817 66.4523 101.761 66.471 101.658L66.877 99.0681H65.603C65.491 99.0681 65.4257 99.0587 65.407 99.0401C65.3883 99.0214 65.379 98.9607 65.379 98.8581V98.4801C65.379 98.3774 65.3883 98.3167 65.407 98.2981C65.4257 98.2794 65.491 98.2701 65.603 98.2701H66.975L67.353 95.8901H66.037C65.9343 95.8901 65.8737 95.8854 65.855 95.8761C65.8363 95.8574 65.827 95.8014 65.827 95.7081V95.3021C65.827 95.2087 65.8363 95.1527 65.855 95.1341C65.8737 95.1154 65.9343 95.1061 66.037 95.1061H67.465L67.857 92.5021C67.8757 92.4087 67.8897 92.3574 67.899 92.3481C67.9177 92.3294 67.9783 92.3201 68.081 92.3201H68.585C68.6877 92.3201 68.7437 92.3247 68.753 92.3341C68.7717 92.3434 68.7717 92.3994 68.753 92.5021L68.347 95.1061H69.467L69.873 92.5021C69.8917 92.3994 69.9057 92.3434 69.915 92.3341C69.9337 92.3247 69.9897 92.3201 70.083 92.3201H70.601C70.7037 92.3201 70.7597 92.3294 70.769 92.3481C70.7877 92.3574 70.7877 92.4087 70.769 92.5021L70.349 95.1061H71.497C71.609 95.1061 71.6743 95.1154 71.693 95.1341C71.7117 95.1527 71.721 95.2134 71.721 95.3161V95.6661ZM75.879 98.6201H75.235C75.123 98.6201 75.067 98.5547 75.067 98.4241V96.1841C75.067 96.0534 75.123 95.9881 75.235 95.9881H75.879C75.991 95.9881 76.047 96.0534 76.047 96.1841V98.4241C76.047 98.5547 75.991 98.6201 75.879 98.6201ZM77.461 97.1641C77.4797 94.5041 76.845 93.1741 75.557 93.1741C74.269 93.1741 73.6343 94.5041 73.653 97.1641C73.6343 99.8334 74.269 101.168 75.557 101.168C76.845 101.168 77.4797 99.8334 77.461 97.1641ZM78.413 97.1641C78.413 100.421 77.4657 102.05 75.571 102.05C73.6577 102.05 72.701 100.421 72.701 97.1641C72.701 95.9694 72.883 94.9147 73.247 94.0001C73.779 92.8521 74.5537 92.2781 75.571 92.2781C76.5603 92.2781 77.3303 92.8521 77.881 94.0001C78.0677 94.4574 78.203 94.9801 78.287 95.5681C78.371 96.1561 78.413 96.6881 78.413 97.1641ZM82.879 98.6201H82.235C82.123 98.6201 82.067 98.5547 82.067 98.4241V96.1841C82.067 96.0534 82.123 95.9881 82.235 95.9881H82.879C82.991 95.9881 83.047 96.0534 83.047 96.1841V98.4241C83.047 98.5547 82.991 98.6201 82.879 98.6201ZM84.461 97.1641C84.4797 94.5041 83.845 93.1741 82.557 93.1741C81.269 93.1741 80.6343 94.5041 80.653 97.1641C80.6343 99.8334 81.269 101.168 82.557 101.168C83.845 101.168 84.4797 99.8334 84.461 97.1641ZM85.413 97.1641C85.413 100.421 84.4657 102.05 82.571 102.05C80.6577 102.05 79.701 100.421 79.701 97.1641C79.701 95.9694 79.883 94.9147 80.247 94.0001C80.779 92.8521 81.5537 92.2781 82.571 92.2781C83.5603 92.2781 84.3303 92.8521 84.881 94.0001C85.0677 94.4574 85.203 94.9801 85.287 95.5681C85.371 96.1561 85.413 96.6881 85.413 97.1641ZM87.023 101.994C86.9297 101.994 86.855 101.989 86.799 101.98C86.7523 101.98 86.715 101.966 86.687 101.938C86.6683 101.919 86.6543 101.882 86.645 101.826C86.645 101.779 86.645 101.705 86.645 101.602V101.294C86.645 101.173 86.6823 101.079 86.757 101.014L88.871 98.8301C90.3737 97.2247 91.1203 95.9787 91.111 95.0921C91.1203 94.4761 90.985 94.0047 90.705 93.6781C90.3877 93.3234 89.949 93.1367 89.389 93.1181C88.7263 93.1181 88.0543 93.3281 87.373 93.7481C87.2517 93.8134 87.177 93.7854 87.149 93.6641L87.065 93.2021C87.037 93.0434 87.0837 92.9407 87.205 92.8941C87.5783 92.6887 87.9377 92.5347 88.283 92.4321C88.6283 92.3294 88.9877 92.2781 89.361 92.2781C90.1077 92.2781 90.747 92.5021 91.279 92.9501C91.867 93.4354 92.161 94.1261 92.161 95.0221C92.161 95.3674 92.0817 95.7501 91.923 96.1701C91.7643 96.5807 91.5123 97.0194 91.167 97.4861C90.8403 97.8967 90.5743 98.2281 90.369 98.4801C90.1637 98.7227 89.893 99.0261 89.557 99.3901C89.193 99.7727 88.9037 100.071 88.689 100.286C88.4837 100.501 88.2083 100.781 87.863 101.126H92.189C92.329 101.135 92.3943 101.201 92.385 101.322V101.812C92.385 101.933 92.3243 101.994 92.203 101.994H87.023ZM95.115 101.742C95.115 101.873 95.0497 101.938 94.919 101.938H94.289C94.1583 101.938 94.093 101.873 94.093 101.742V92.7961C94.093 92.5907 94.107 92.4741 94.135 92.4461C94.1723 92.4087 94.2937 92.3901 94.499 92.3901H98.811C98.9417 92.3901 99.007 92.4554 99.007 92.5861V93.0621C99.007 93.1927 98.9417 93.2581 98.811 93.2581H95.115V96.5901H98.615C98.7457 96.5901 98.811 96.6554 98.811 96.7861V97.2901C98.811 97.4207 98.7457 97.4861 98.615 97.4861H95.115V101.742ZM101.065 101.742C100.925 101.705 100.864 101.597 100.883 101.42L100.939 100.916C100.958 100.804 101.032 100.776 101.163 100.832C101.452 100.953 101.76 101.051 102.087 101.126C102.414 101.201 102.745 101.238 103.081 101.238C103.744 101.238 104.285 101.079 104.705 100.762C105.274 100.361 105.559 99.8427 105.559 99.2081C105.55 98.0041 104.607 97.4021 102.731 97.4021H102.437C102.316 97.4021 102.255 97.3507 102.255 97.2481V96.7301C102.255 96.6087 102.316 96.5481 102.437 96.5481H102.507C103.114 96.5481 103.692 96.4454 104.243 96.2401C105.074 95.9041 105.489 95.3814 105.489 94.6721C105.489 94.4201 105.424 94.1914 105.293 93.9861C105.172 93.7807 104.976 93.6081 104.705 93.4681C104.528 93.3654 104.313 93.2861 104.061 93.2301C103.818 93.1647 103.543 93.1321 103.235 93.1321C102.946 93.1321 102.656 93.1741 102.367 93.2581C102.078 93.3421 101.802 93.4541 101.541 93.5941C101.429 93.6407 101.364 93.6034 101.345 93.4821L101.289 92.9781C101.27 92.8474 101.326 92.7541 101.457 92.6981C101.765 92.5581 102.078 92.4554 102.395 92.3901C102.712 92.3154 103.025 92.2781 103.333 92.2781C104.154 92.2781 104.873 92.4741 105.489 92.8661C106.142 93.3327 106.469 93.9347 106.469 94.6721C106.469 95.2601 106.264 95.7547 105.853 96.1561C105.452 96.5294 104.962 96.7907 104.383 96.9401C104.626 96.9681 104.892 97.0521 105.181 97.1921C105.48 97.3321 105.718 97.5001 105.895 97.6961C106.11 97.9294 106.268 98.1814 106.371 98.4521C106.483 98.7134 106.539 98.9841 106.539 99.2641C106.539 99.6747 106.455 100.053 106.287 100.398C106.119 100.734 105.862 101.037 105.517 101.308C105.172 101.579 104.798 101.775 104.397 101.896C104.005 102.027 103.576 102.092 103.109 102.092C102.801 102.092 102.47 102.064 102.115 102.008C101.77 101.961 101.42 101.873 101.065 101.742ZM108.065 101.742C107.925 101.705 107.864 101.597 107.883 101.42L107.939 100.916C107.958 100.804 108.032 100.776 108.163 100.832C108.452 100.953 108.76 101.051 109.087 101.126C109.414 101.201 109.745 101.238 110.081 101.238C110.744 101.238 111.285 101.079 111.705 100.762C112.274 100.361 112.559 99.8427 112.559 99.2081C112.55 98.0041 111.607 97.4021 109.731 97.4021H109.437C109.316 97.4021 109.255 97.3507 109.255 97.2481V96.7301C109.255 96.6087 109.316 96.5481 109.437 96.5481H109.507C110.114 96.5481 110.692 96.4454 111.243 96.2401C112.074 95.9041 112.489 95.3814 112.489 94.6721C112.489 94.4201 112.424 94.1914 112.293 93.9861C112.172 93.7807 111.976 93.6081 111.705 93.4681C111.528 93.3654 111.313 93.2861 111.061 93.2301C110.818 93.1647 110.543 93.1321 110.235 93.1321C109.946 93.1321 109.656 93.1741 109.367 93.2581C109.078 93.3421 108.802 93.4541 108.541 93.5941C108.429 93.6407 108.364 93.6034 108.345 93.4821L108.289 92.9781C108.27 92.8474 108.326 92.7541 108.457 92.6981C108.765 92.5581 109.078 92.4554 109.395 92.3901C109.712 92.3154 110.025 92.2781 110.333 92.2781C111.154 92.2781 111.873 92.4741 112.489 92.8661C113.142 93.3327 113.469 93.9347 113.469 94.6721C113.469 95.2601 113.264 95.7547 112.853 96.1561C112.452 96.5294 111.962 96.7907 111.383 96.9401C111.626 96.9681 111.892 97.0521 112.181 97.1921C112.48 97.3321 112.718 97.5001 112.895 97.6961C113.11 97.9294 113.268 98.1814 113.371 98.4521C113.483 98.7134 113.539 98.9841 113.539 99.2641C113.539 99.6747 113.455 100.053 113.287 100.398C113.119 100.734 112.862 101.037 112.517 101.308C112.172 101.579 111.798 101.775 111.397 101.896C111.005 102.027 110.576 102.092 110.109 102.092C109.801 102.092 109.47 102.064 109.115 102.008C108.77 101.961 108.42 101.873 108.065 101.742ZM21.951 105.662C22.0537 105.709 22.1003 105.774 22.091 105.858L22.007 106.348C21.9977 106.404 21.9743 106.441 21.937 106.46C21.8997 106.469 21.8623 106.465 21.825 106.446C21.6757 106.381 21.5123 106.329 21.335 106.292C21.167 106.255 20.9943 106.236 20.817 106.236C20.2663 106.236 19.9117 106.511 19.753 107.062C19.6877 107.286 19.655 107.776 19.655 108.532V109.246H22.105C22.2357 109.246 22.301 109.311 22.301 109.442V109.862C22.301 109.993 22.2357 110.058 22.105 110.058H19.655V115.742C19.655 115.873 19.5897 115.938 19.459 115.938H18.913C18.7823 115.938 18.717 115.873 18.717 115.742V110.058H17.023C16.8923 110.058 16.827 109.993 16.827 109.862V109.442C16.827 109.311 16.8923 109.246 17.023 109.246H18.717V108.63C18.717 107.613 18.8103 106.88 18.997 106.432C19.2863 105.76 19.865 105.424 20.733 105.424C21.1717 105.424 21.5777 105.503 21.951 105.662ZM28.503 112.424C28.503 112.06 28.461 111.701 28.377 111.346C28.293 110.991 28.1623 110.669 27.985 110.38C27.6303 109.82 27.1497 109.54 26.543 109.54C25.9083 109.54 25.4277 109.82 25.101 110.38C24.9237 110.669 24.793 110.991 24.709 111.346C24.6343 111.701 24.597 112.06 24.597 112.424C24.597 112.825 24.6343 113.203 24.709 113.558C24.7837 113.913 24.9143 114.216 25.101 114.468C25.5117 115.037 25.9923 115.322 26.543 115.322C27.187 115.322 27.6677 115.037 27.985 114.468C28.1717 114.216 28.3023 113.913 28.377 113.558C28.461 113.203 28.503 112.825 28.503 112.424ZM29.469 112.424C29.469 112.937 29.4083 113.423 29.287 113.88C29.175 114.328 28.9977 114.706 28.755 115.014C28.475 115.378 28.153 115.658 27.789 115.854C27.425 116.059 27.0097 116.162 26.543 116.162C26.0763 116.162 25.661 116.059 25.297 115.854C24.933 115.658 24.611 115.378 24.331 115.014C24.107 114.678 23.9343 114.291 23.813 113.852C23.701 113.413 23.645 112.937 23.645 112.424C23.645 111.369 23.8737 110.506 24.331 109.834C24.863 109.078 25.6003 108.7 26.543 108.7C27.019 108.7 27.4343 108.793 27.789 108.98C28.153 109.157 28.475 109.442 28.755 109.834C29.231 110.515 29.469 111.379 29.469 112.424ZM36.175 115.742C36.175 115.873 36.1097 115.938 35.979 115.938H35.419C35.2883 115.938 35.223 115.873 35.223 115.742V111.892C35.223 111.033 35.1063 110.427 34.873 110.072C34.6397 109.708 34.243 109.526 33.683 109.526C33.1883 109.526 32.773 109.727 32.437 110.128C32.101 110.52 31.933 111.117 31.933 111.92V115.742C31.933 115.873 31.8677 115.938 31.737 115.938H31.177C31.0463 115.938 30.981 115.873 30.981 115.742V110.702C30.981 110.301 30.9763 109.988 30.967 109.764C30.967 109.54 30.9577 109.325 30.939 109.12C30.9297 109.055 30.9437 109.008 30.981 108.98C31.0277 108.943 31.079 108.924 31.135 108.924H31.639C31.7697 108.924 31.835 108.989 31.835 109.12V109.904C32.059 109.503 32.3297 109.209 32.647 109.022C32.9737 108.826 33.347 108.728 33.767 108.728C34.5883 108.728 35.195 108.985 35.587 109.498C35.979 110.011 36.175 110.735 36.175 111.668V115.742ZM43.035 115.924C42.643 116.083 42.1857 116.162 41.663 116.162C40.8137 116.162 40.2677 115.915 40.025 115.42C39.8663 115.084 39.787 114.491 39.787 113.642V110.058H37.967C37.8363 110.058 37.771 109.993 37.771 109.862V109.442C37.771 109.311 37.8363 109.246 37.967 109.246H39.787V107.272C39.787 107.132 39.8477 107.062 39.969 107.062H40.557C40.6783 107.062 40.739 107.132 40.739 107.272V109.246H42.993C43.1237 109.246 43.189 109.311 43.189 109.442V109.862C43.189 109.993 43.1237 110.058 42.993 110.058H40.739V114.272C40.739 114.972 41.1217 115.322 41.887 115.322C42.2697 115.322 42.6337 115.243 42.979 115.084C43.0257 115.065 43.0677 115.065 43.105 115.084C43.1517 115.103 43.175 115.14 43.175 115.196L43.203 115.644C43.2217 115.775 43.1657 115.868 43.035 115.924ZM50.483 110.674V111.29C50.483 111.393 50.4737 111.453 50.455 111.472C50.4457 111.481 50.3897 111.486 50.287 111.486H44.827C44.7243 111.486 44.6637 111.481 44.645 111.472C44.6357 111.453 44.631 111.393 44.631 111.29V110.674C44.631 110.571 44.6357 110.515 44.645 110.506C44.6637 110.487 44.7243 110.478 44.827 110.478H50.287C50.3897 110.478 50.4457 110.487 50.455 110.506C50.4737 110.515 50.483 110.571 50.483 110.674ZM52.331 115.014C52.9283 115.247 53.5443 115.364 54.179 115.364C54.711 115.364 55.159 115.233 55.523 114.972C55.8963 114.701 56.083 114.431 56.083 114.16C56.083 113.908 55.9803 113.689 55.775 113.502C55.5697 113.315 55.3177 113.147 55.019 112.998C54.7017 112.83 54.389 112.671 54.081 112.522C53.7823 112.363 53.479 112.205 53.171 112.046C52.8163 111.869 52.555 111.654 52.387 111.402C52.2283 111.141 52.149 110.889 52.149 110.646C52.149 110.347 52.2143 110.081 52.345 109.848C52.4757 109.615 52.653 109.409 52.877 109.232C53.101 109.055 53.3717 108.924 53.689 108.84C54.0157 108.747 54.361 108.7 54.725 108.7C55.061 108.7 55.369 108.719 55.649 108.756C55.929 108.793 56.2183 108.859 56.517 108.952C56.5823 108.971 56.6337 108.999 56.671 109.036C56.7177 109.073 56.7363 109.12 56.727 109.176L56.685 109.624C56.6757 109.699 56.643 109.745 56.587 109.764C56.5403 109.783 56.4937 109.783 56.447 109.764C56.1763 109.661 55.915 109.591 55.663 109.554C55.411 109.517 55.131 109.498 54.823 109.498C53.6937 109.498 53.129 109.881 53.129 110.646C53.129 110.786 53.2037 110.935 53.353 111.094C53.5023 111.243 53.759 111.397 54.123 111.556C54.4777 111.724 54.795 111.878 55.075 112.018C55.3643 112.149 55.6817 112.307 56.027 112.494C56.4377 112.737 56.7177 112.989 56.867 113.25C57.0257 113.511 57.105 113.81 57.105 114.146C57.105 114.417 57.0257 114.692 56.867 114.972C56.7083 115.252 56.4937 115.476 56.223 115.644C55.9617 115.812 55.6583 115.938 55.313 116.022C54.9677 116.115 54.6177 116.162 54.263 116.162C54.039 116.162 53.8383 116.157 53.661 116.148C53.493 116.139 53.3297 116.125 53.171 116.106C53.0217 116.087 52.8677 116.064 52.709 116.036C52.5597 116.008 52.401 115.971 52.233 115.924C52.0837 115.877 52.0137 115.798 52.023 115.686L52.093 115.14C52.121 115 52.2003 114.958 52.331 115.014ZM63.867 115.07C63.9977 115.07 64.063 115.135 64.063 115.266V115.742C64.063 115.873 63.9977 115.938 63.867 115.938H59.401C59.2703 115.938 59.205 115.873 59.205 115.742V115.266C59.205 115.135 59.2703 115.07 59.401 115.07H61.193V109.792H59.555C59.4243 109.792 59.359 109.727 59.359 109.596V109.12C59.359 108.989 59.4243 108.924 59.555 108.924H62.005C62.1357 108.924 62.201 108.989 62.201 109.12V115.07H63.867ZM60.759 106.656C60.759 106.441 60.8337 106.259 60.983 106.11C61.1417 105.951 61.3283 105.872 61.543 105.872C61.7577 105.872 61.9397 105.951 62.089 106.11C62.2477 106.259 62.327 106.441 62.327 106.656C62.327 106.871 62.2477 107.057 62.089 107.216C61.9397 107.365 61.7577 107.44 61.543 107.44C61.3283 107.44 61.1417 107.365 60.983 107.216C60.8337 107.057 60.759 106.871 60.759 106.656ZM66.261 115.938C66.065 115.938 65.9483 115.919 65.911 115.882C65.883 115.854 65.869 115.728 65.869 115.504V115.28C65.869 115.159 65.9063 115.056 65.981 114.972L70.195 109.778H66.247C66.1163 109.778 66.051 109.713 66.051 109.582V109.12C66.051 108.989 66.1163 108.924 66.247 108.924H70.853C71.049 108.924 71.161 108.943 71.189 108.98C71.2263 109.008 71.245 109.12 71.245 109.316V109.61C71.245 109.731 71.2123 109.829 71.147 109.904L66.919 115.112H71.049C71.1797 115.112 71.245 115.177 71.245 115.308V115.742C71.245 115.873 71.1797 115.938 71.049 115.938H66.261ZM77.433 111.976C77.433 111.687 77.3957 111.393 77.321 111.094C77.2557 110.795 77.153 110.534 77.013 110.31C76.6863 109.769 76.2197 109.498 75.613 109.498C75.0063 109.498 74.5303 109.773 74.185 110.324C74.0263 110.595 73.905 110.875 73.821 111.164C73.737 111.453 73.6903 111.724 73.681 111.976H77.433ZM73.667 112.774C73.6577 113.073 73.709 113.399 73.821 113.754C73.9423 114.099 74.1057 114.384 74.311 114.608C74.5163 114.823 74.7497 114.995 75.011 115.126C75.2723 115.257 75.5897 115.322 75.963 115.322C76.2897 115.322 76.593 115.289 76.873 115.224C77.153 115.159 77.433 115.051 77.713 114.902C77.825 114.855 77.8857 114.888 77.895 115V115.644C77.895 115.719 77.8437 115.779 77.741 115.826C77.4517 115.938 77.167 116.022 76.887 116.078C76.6163 116.134 76.285 116.162 75.893 116.162C74.8943 116.162 74.101 115.831 73.513 115.168C72.925 114.496 72.631 113.595 72.631 112.466C72.631 111.439 72.9203 110.543 73.499 109.778C74.1057 109.059 74.815 108.7 75.627 108.7C76.131 108.7 76.5463 108.789 76.873 108.966C77.209 109.143 77.5077 109.414 77.769 109.778C78.2357 110.403 78.469 111.253 78.469 112.326C78.469 112.438 78.4643 112.527 78.455 112.592C78.455 112.648 78.441 112.69 78.413 112.718C78.385 112.746 78.3337 112.765 78.259 112.774C78.1937 112.774 78.0957 112.774 77.965 112.774H73.667ZM81.591 108.448C81.591 108.196 81.6843 107.977 81.871 107.79C82.067 107.594 82.2957 107.496 82.557 107.496C82.809 107.496 83.033 107.594 83.229 107.79C83.425 107.977 83.523 108.196 83.523 108.448C83.523 108.719 83.425 108.947 83.229 109.134C83.033 109.321 82.809 109.414 82.557 109.414C82.2957 109.414 82.067 109.321 81.871 109.134C81.6843 108.947 81.591 108.719 81.591 108.448ZM81.591 113.936C81.591 113.665 81.6843 113.437 81.871 113.25C82.067 113.063 82.2957 112.97 82.557 112.97C82.809 112.97 83.033 113.063 83.229 113.25C83.425 113.437 83.523 113.665 83.523 113.936C83.523 114.188 83.425 114.412 83.229 114.608C83.033 114.795 82.809 114.888 82.557 114.888C82.2957 114.888 82.067 114.795 81.871 114.608C81.6843 114.412 81.591 114.188 81.591 113.936ZM94.065 115.742C93.925 115.705 93.8643 115.597 93.883 115.42L93.939 114.916C93.9577 114.804 94.0323 114.776 94.163 114.832C94.4523 114.953 94.7603 115.051 95.087 115.126C95.4137 115.201 95.745 115.238 96.081 115.238C96.7437 115.238 97.285 115.079 97.705 114.762C98.2743 114.361 98.559 113.843 98.559 113.208C98.5497 112.004 97.607 111.402 95.731 111.402H95.437C95.3157 111.402 95.255 111.351 95.255 111.248V110.73C95.255 110.609 95.3157 110.548 95.437 110.548H95.507C96.1137 110.548 96.6923 110.445 97.243 110.24C98.0737 109.904 98.489 109.381 98.489 108.672C98.489 108.42 98.4237 108.191 98.293 107.986C98.1717 107.781 97.9757 107.608 97.705 107.468C97.5277 107.365 97.313 107.286 97.061 107.23C96.8183 107.165 96.543 107.132 96.235 107.132C95.9457 107.132 95.6563 107.174 95.367 107.258C95.0777 107.342 94.8023 107.454 94.541 107.594C94.429 107.641 94.3637 107.603 94.345 107.482L94.289 106.978C94.2703 106.847 94.3263 106.754 94.457 106.698C94.765 106.558 95.0777 106.455 95.395 106.39C95.7123 106.315 96.025 106.278 96.333 106.278C97.1543 106.278 97.873 106.474 98.489 106.866C99.1423 107.333 99.469 107.935 99.469 108.672C99.469 109.26 99.2637 109.755 98.853 110.156C98.4517 110.529 97.9617 110.791 97.383 110.94C97.6257 110.968 97.8917 111.052 98.181 111.192C98.4797 111.332 98.7177 111.5 98.895 111.696C99.1097 111.929 99.2683 112.181 99.371 112.452C99.483 112.713 99.539 112.984 99.539 113.264C99.539 113.675 99.455 114.053 99.287 114.398C99.119 114.734 98.8623 115.037 98.517 115.308C98.1717 115.579 97.7983 115.775 97.397 115.896C97.005 116.027 96.5757 116.092 96.109 116.092C95.801 116.092 95.4697 116.064 95.115 116.008C94.7697 115.961 94.4197 115.873 94.065 115.742ZM101.023 115.994C100.93 115.994 100.855 115.989 100.799 115.98C100.752 115.98 100.715 115.966 100.687 115.938C100.668 115.919 100.654 115.882 100.645 115.826C100.645 115.779 100.645 115.705 100.645 115.602V115.294C100.645 115.173 100.682 115.079 100.757 115.014L102.871 112.83C104.374 111.225 105.12 109.979 105.111 109.092C105.12 108.476 104.985 108.005 104.705 107.678C104.388 107.323 103.949 107.137 103.389 107.118C102.726 107.118 102.054 107.328 101.373 107.748C101.252 107.813 101.177 107.785 101.149 107.664L101.065 107.202C101.037 107.043 101.084 106.941 101.205 106.894C101.578 106.689 101.938 106.535 102.283 106.432C102.628 106.329 102.988 106.278 103.361 106.278C104.108 106.278 104.747 106.502 105.279 106.95C105.867 107.435 106.161 108.126 106.161 109.022C106.161 109.367 106.082 109.75 105.923 110.17C105.764 110.581 105.512 111.019 105.167 111.486C104.84 111.897 104.574 112.228 104.369 112.48C104.164 112.723 103.893 113.026 103.557 113.39C103.193 113.773 102.904 114.071 102.689 114.286C102.484 114.501 102.208 114.781 101.863 115.126H106.189C106.329 115.135 106.394 115.201 106.385 115.322V115.812C106.385 115.933 106.324 115.994 106.203 115.994H101.023ZM107.925 109.106C107.925 108.985 107.99 108.924 108.121 108.924H108.667C108.798 108.924 108.863 108.985 108.863 109.106V110.128C109.246 109.232 109.899 108.784 110.823 108.784C111.252 108.784 111.64 108.887 111.985 109.092C112.34 109.297 112.643 109.596 112.895 109.988C113.147 110.371 113.324 110.786 113.427 111.234C113.539 111.682 113.595 112.153 113.595 112.648C113.595 113.525 113.352 114.333 112.867 115.07C112.382 115.798 111.7 116.162 110.823 116.162C110.356 116.162 109.955 116.045 109.619 115.812C109.292 115.579 109.04 115.294 108.863 114.958V117.898C108.863 118.019 108.798 118.08 108.667 118.08H108.121C107.99 118.08 107.925 118.019 107.925 117.898V109.106ZM112.601 112.494C112.61 112.205 112.582 111.892 112.517 111.556C112.452 111.211 112.34 110.889 112.181 110.59C112.032 110.282 111.84 110.039 111.607 109.862C111.374 109.685 111.084 109.596 110.739 109.596C110.394 109.596 110.104 109.685 109.871 109.862C109.638 110.039 109.442 110.282 109.283 110.59C109.134 110.889 109.031 111.211 108.975 111.556C108.919 111.892 108.891 112.205 108.891 112.494C108.891 112.765 108.919 113.077 108.975 113.432C109.031 113.777 109.134 114.099 109.283 114.398C109.442 114.697 109.638 114.935 109.871 115.112C110.104 115.289 110.394 115.378 110.739 115.378C111.084 115.378 111.374 115.289 111.607 115.112C111.84 114.935 112.036 114.697 112.195 114.398C112.354 114.099 112.461 113.777 112.517 113.432C112.582 113.077 112.61 112.765 112.601 112.494ZM120.511 115.742C120.539 115.789 120.539 115.831 120.511 115.868C120.492 115.915 120.455 115.938 120.399 115.938H119.699C119.587 115.938 119.494 115.873 119.419 115.742L117.557 112.97L115.695 115.742C115.611 115.873 115.518 115.938 115.415 115.938H114.715C114.659 115.938 114.617 115.915 114.589 115.868C114.57 115.831 114.575 115.789 114.603 115.742L117.025 112.2L114.883 109.12C114.855 109.073 114.85 109.031 114.869 108.994C114.897 108.947 114.939 108.924 114.995 108.924H115.695C115.807 108.924 115.9 108.989 115.975 109.12L117.557 111.43L119.139 109.12C119.223 108.989 119.316 108.924 119.419 108.924H120.119C120.175 108.924 120.212 108.947 120.231 108.994C120.259 109.031 120.259 109.073 120.231 109.12L118.089 112.2L120.511 115.742ZM18.619 118.43C19.0577 118.43 19.4217 118.589 19.711 118.906C20.0097 119.251 20.159 119.695 20.159 120.236V122.77C20.159 123.321 20.2523 123.773 20.439 124.128C20.5137 124.277 20.6023 124.399 20.705 124.492C20.8077 124.576 20.971 124.641 21.195 124.688C21.391 124.725 21.5077 124.763 21.545 124.8C21.5823 124.837 21.601 124.912 21.601 125.024V125.164C21.601 125.267 21.573 125.337 21.517 125.374C21.4703 125.411 21.3583 125.449 21.181 125.486C20.817 125.589 20.5697 125.78 20.439 126.06C20.2523 126.415 20.159 126.877 20.159 127.446V129.938C20.159 130.489 20.005 130.932 19.697 131.268H19.711C19.4403 131.595 19.0717 131.758 18.605 131.758H18.059C17.9283 131.758 17.849 131.749 17.821 131.73C17.8023 131.711 17.793 131.637 17.793 131.506V131.282C17.793 131.161 17.8023 131.091 17.821 131.072C17.849 131.053 17.9283 131.044 18.059 131.044H18.521C18.9783 131.044 19.207 130.582 19.207 129.658V127.194C19.207 126.111 19.641 125.411 20.509 125.094C19.641 124.749 19.207 124.03 19.207 122.938V120.53C19.207 119.606 18.9783 119.144 18.521 119.144H18.031C17.9097 119.144 17.8397 119.135 17.821 119.116C17.8023 119.097 17.793 119.027 17.793 118.906V118.668C17.793 118.547 17.8023 118.477 17.821 118.458C17.8397 118.439 17.9143 118.43 18.045 118.43H18.619Z" fill="#00545B"/>
</svg>
