<svg width="186" height="157" viewBox="0 0 186 157" fill="none" xmlns="http://www.w3.org/2000/svg">
<circle cx="165.107" cy="135.164" r="20.8361" fill="#F8FBFC"/>
<circle cx="114.279" cy="80.4918" r="20.3361" stroke="#F8FBFC"/>
<circle cx="65.8156" cy="135.836" r="20.3361" stroke="#F8FBFC"/>
<circle cx="21.7791" cy="20.8361" r="20.3361" stroke="#F8FBFC"/>
<path d="M65.5913 135.987L64.8469 136.078L66.3344 136.088L65.5913 135.987ZM23.1987 23.3401C23.5484 23.5621 24.0119 23.4585 24.2338 23.1088C24.4558 22.7591 24.3522 22.2956 24.0025 22.0737L23.1987 23.3401ZM28.6603 25.7066C28.357 25.4245 27.8825 25.4418 27.6004 25.7451C27.3183 26.0484 27.3355 26.523 27.6388 26.805L28.6603 25.7066ZM30.2841 29.5117C30.5603 29.8204 31.0344 29.8469 31.3431 29.5707C31.6519 29.2946 31.6783 28.8204 31.4022 28.5117L30.2841 29.5117ZM35.0632 33.0928C34.8211 32.7567 34.3524 32.6805 34.0163 32.9225C33.6802 33.1646 33.6039 33.6333 33.846 33.9694L35.0632 33.0928ZM35.9862 37.1252C36.2095 37.474 36.6734 37.5758 37.0222 37.3525C37.3711 37.1291 37.4728 36.6653 37.2495 36.3164L35.9862 37.1252ZM40.2216 41.3295C40.0217 40.9667 39.5656 40.8347 39.2028 41.0346C38.84 41.2345 38.708 41.6907 38.9079 42.0534L40.2216 41.3295ZM40.6929 45.4388C40.8797 45.8086 41.3308 45.9569 41.7005 45.7701C42.0702 45.5834 42.2186 45.1322 42.0318 44.7625L40.6929 45.4388ZM44.5371 50.0238C44.3673 49.646 43.9233 49.4775 43.5455 49.6474C43.1677 49.8173 42.9992 50.2612 43.1691 50.639L44.5371 50.0238ZM44.6946 54.1526C44.8548 54.5346 45.2943 54.7144 45.6763 54.5542C46.0583 54.394 46.2381 53.9545 46.0779 53.5725L44.6946 54.1526ZM48.2333 58.9672C48.0858 58.5801 47.6525 58.3859 47.2654 58.5334C46.8783 58.6808 46.6841 59.1142 46.8315 59.5012L48.2333 58.9672ZM48.1638 63.1041C48.3038 63.494 48.7333 63.6966 49.1231 63.5566C49.513 63.4166 49.7155 62.9871 49.5756 62.5973L48.1638 63.1041ZM51.4633 68.0809C51.3334 67.6875 50.9093 67.474 50.5159 67.6039C50.1226 67.7338 49.9091 68.158 50.039 68.5513L51.4633 68.0809ZM51.2163 72.2112C51.3402 72.6065 51.761 72.8265 52.1562 72.7027C52.5515 72.5788 52.7715 72.158 52.6477 71.7627L51.2163 72.2112ZM54.3224 77.3133C54.2068 76.9155 53.7907 76.6868 53.3929 76.8024C52.9952 76.918 52.7664 77.3341 52.882 77.7319L54.3224 77.3133ZM53.9312 81.4305C54.0417 81.8297 54.455 82.0637 54.8542 81.9531C55.2533 81.8426 55.4873 81.4294 55.3768 81.0302L53.9312 81.4305ZM56.8745 86.632C56.7709 86.231 56.3619 85.9898 55.9608 86.0933C55.5597 86.1968 55.3185 86.6059 55.4221 87.0069L56.8745 86.632ZM56.3626 90.735C56.4618 91.1372 56.8682 91.3828 57.2704 91.2837C57.6725 91.1845 57.9182 90.7781 57.819 90.3759L56.3626 90.735ZM59.1638 96.017C59.0708 95.6134 58.6681 95.3616 58.2645 95.4546C57.8609 95.5476 57.6091 95.9502 57.7021 96.3538L59.1638 96.017ZM58.5477 100.107C58.6368 100.511 59.037 100.767 59.4415 100.678C59.846 100.589 60.1017 100.189 60.0126 99.7842L58.5477 100.107ZM61.2199 105.452C61.1364 105.047 60.7398 104.785 60.3341 104.869C59.9284 104.953 59.6672 105.349 59.7507 105.755L61.2199 105.452ZM60.5103 109.53C60.5902 109.936 60.9844 110.201 61.3908 110.121C61.7973 110.041 62.062 109.647 61.9821 109.241L60.5103 109.53ZM63.0583 114.912C62.9837 114.504 62.593 114.235 62.1855 114.309C61.7781 114.384 61.5082 114.774 61.5828 115.182L63.0583 114.912ZM62.2593 118.972C62.3303 119.38 62.7186 119.654 63.1267 119.583C63.5348 119.512 63.8081 119.123 63.7371 118.715L62.2593 118.972ZM64.6944 124.448C64.629 124.039 64.2444 123.761 63.8354 123.826C63.4264 123.892 63.1478 124.276 63.2132 124.685L64.6944 124.448ZM63.7994 128.47C63.8608 128.879 64.2426 129.162 64.6523 129.1C65.0619 129.039 65.3443 128.657 65.2829 128.247L63.7994 128.47ZM66.0937 133.995C66.0397 133.584 65.6631 133.295 65.2524 133.349C64.8417 133.403 64.5525 133.779 64.6064 134.19L66.0937 133.995ZM66.6407 134.239C66.7196 133.832 66.454 133.439 66.0474 133.36C65.6408 133.281 65.2471 133.547 65.1682 133.953L66.6407 134.239ZM66.6963 128.295C66.5625 128.687 66.7718 129.114 67.1638 129.247C67.5558 129.381 67.9821 129.172 68.1159 128.78L66.6963 128.295ZM69.4707 125.244C69.6323 124.863 69.4541 124.422 69.0727 124.261C68.6913 124.099 68.2511 124.277 68.0896 124.659L69.4707 125.244ZM70.6058 119.4C70.4114 119.765 70.5503 120.219 70.9161 120.414C71.2818 120.608 71.7359 120.469 71.9303 120.103L70.6058 119.4ZM73.7986 116.791C74.0107 116.436 73.8942 115.975 73.5384 115.763C73.1826 115.551 72.7223 115.667 72.5102 116.023L73.7986 116.791ZM75.6488 111.133C75.4143 111.474 75.5009 111.941 75.8423 112.175C76.1837 112.41 76.6506 112.323 76.8852 111.982L75.6488 111.133ZM79.1057 108.881C79.3533 108.549 79.2847 108.079 78.9526 107.832C78.6205 107.584 78.1506 107.653 77.9031 107.985L79.1057 108.881ZM81.4973 103.428C81.2321 103.746 81.2752 104.219 81.5935 104.484C81.9117 104.75 82.3846 104.706 82.6498 104.388L81.4973 103.428ZM85.143 101.499C85.419 101.19 85.3924 100.716 85.0835 100.44C84.7746 100.164 84.3005 100.191 84.0245 100.499L85.143 101.499ZM88.0028 96.2743C87.711 96.5683 87.7128 97.0432 88.0068 97.3349C88.3008 97.6267 88.7757 97.6249 89.0675 97.3309L88.0028 96.2743ZM91.8039 94.6717C92.1062 94.3886 92.1218 93.914 91.8387 93.6116C91.5555 93.3093 91.0809 93.2937 90.7786 93.5769L91.8039 94.6717ZM95.1303 89.7368C94.8113 90.001 94.7669 90.4738 95.0312 90.7928C95.2954 91.1118 95.7682 91.1562 96.0872 90.8919L95.1303 89.7368ZM99.0802 88.5281C99.4115 88.2795 99.4785 87.8093 99.2299 87.478C98.9812 87.1467 98.5111 87.0797 98.1798 87.3284L99.0802 88.5281ZM102.987 84.0413C102.634 84.2578 102.523 84.7195 102.739 85.0727C102.956 85.4259 103.417 85.5367 103.771 85.3203L102.987 84.0413ZM107.065 83.4925C107.437 83.3097 107.59 82.8602 107.407 82.4885C107.224 82.1168 106.775 81.9637 106.403 82.1465L107.065 83.4925ZM112.023 80.1472C111.616 80.2232 111.348 80.6149 111.424 81.0221C111.5 81.4293 111.891 81.6977 112.299 81.6217L112.023 80.1472ZM115.875 81.6119C116.283 81.6812 116.67 81.4064 116.74 80.998C116.809 80.5897 116.534 80.2024 116.126 80.133L115.875 81.6119ZM121.928 82.0097C121.55 81.8407 121.106 82.0103 120.937 82.3884C120.768 82.7666 120.938 83.2102 121.316 83.3792L121.928 82.0097ZM124.774 85.1259C125.136 85.3279 125.593 85.1986 125.795 84.837C125.997 84.4754 125.868 84.0185 125.506 83.8164L124.774 85.1259ZM130.572 86.9853C130.231 86.7504 129.764 86.8365 129.529 87.1777C129.294 87.5188 129.38 87.9858 129.721 88.2207L130.572 86.9853ZM132.881 90.5157C133.21 90.7671 133.68 90.704 133.932 90.3748C134.183 90.0456 134.12 89.5749 133.791 89.3235L132.881 90.5157ZM138.408 93.0941C138.096 92.8222 137.622 92.8551 137.35 93.1676C137.078 93.48 137.111 93.9538 137.423 94.2257L138.408 93.0941ZM140.327 96.8545C140.629 97.1384 141.103 97.1241 141.387 96.8225C141.671 96.5209 141.657 96.0462 141.355 95.7623L140.327 96.8545ZM145.572 99.9649C145.287 99.6643 144.813 99.6517 144.512 99.9367C144.211 100.222 144.199 100.696 144.484 100.997L145.572 99.9649ZM147.122 103.887C147.396 104.198 147.869 104.229 148.181 103.955C148.492 103.682 148.522 103.208 148.249 102.897L147.122 103.887ZM152.049 107.485C151.794 107.159 151.323 107.1 150.996 107.355C150.67 107.609 150.611 108.08 150.866 108.407L152.049 107.485ZM153.205 111.541C153.445 111.878 153.914 111.957 154.251 111.716C154.588 111.475 154.666 111.007 154.426 110.67L153.205 111.541ZM157.726 115.637C157.509 115.284 157.047 115.174 156.694 115.391C156.341 115.608 156.231 116.07 156.448 116.423L157.726 115.637ZM158.41 119.799C158.609 120.163 159.064 120.296 159.428 120.097C159.791 119.899 159.925 119.443 159.726 119.08L158.41 119.799ZM162.37 124.439C162.204 124.06 161.761 123.888 161.382 124.054C161.003 124.221 160.83 124.663 160.997 125.042L162.37 124.439ZM162.443 128.652C162.584 129.041 163.013 129.243 163.403 129.102C163.793 128.961 163.994 128.531 163.853 128.142L162.443 128.652ZM165.571 133.89C165.476 133.487 165.073 133.237 164.669 133.331C164.266 133.425 164.016 133.829 164.11 134.232L165.571 133.89ZM21.5942 22.4034C22.1339 22.6913 22.6688 23.0038 23.1987 23.3401L24.0025 22.0737C23.442 21.7179 22.8746 21.3863 22.3002 21.0799L21.5942 22.4034ZM27.6388 26.805C28.5369 27.6403 29.4187 28.5441 30.2841 29.5117L31.4022 28.5117C30.5088 27.5128 29.595 26.5758 28.6603 25.7066L27.6388 26.805ZM33.846 33.9694C34.5727 34.9785 35.2861 36.0316 35.9862 37.1252L37.2495 36.3164C36.5357 35.2015 35.807 34.1257 35.0632 33.0928L33.846 33.9694ZM38.9079 42.0534C39.5141 43.1537 40.1091 44.2831 40.6929 45.4388L42.0318 44.7625C41.4404 43.5917 40.837 42.4464 40.2216 41.3295L38.9079 42.0534ZM43.1691 50.639C43.6874 51.7916 44.1959 52.9636 44.6946 54.1526L46.0779 53.5725C45.5745 52.3723 45.061 51.1886 44.5371 50.0238L43.1691 50.639ZM46.8315 59.5012C47.2846 60.6905 47.7287 61.8921 48.1638 63.1041L49.5756 62.5973C49.1373 61.3766 48.6899 60.1659 48.2333 58.9672L46.8315 59.5012ZM50.039 68.5513C50.4399 69.7651 50.8323 70.9858 51.2163 72.2112L52.6477 71.7627C52.2615 70.5303 51.8667 69.3023 51.4633 68.0809L50.039 68.5513ZM52.882 77.7319C53.24 78.9637 53.5897 80.1973 53.9312 81.4305L55.3768 81.0302C55.0337 79.7911 54.6822 78.5514 54.3224 77.3133L52.882 77.7319ZM55.4221 87.0069C55.7439 88.2539 56.0574 89.4973 56.3626 90.735L57.819 90.3759C57.5125 89.1331 57.1977 87.8844 56.8745 86.632L55.4221 87.0069ZM57.7021 96.3538C57.9927 97.6153 58.2746 98.8671 58.5477 100.107L60.0126 99.7842C59.7384 98.5398 59.4555 97.2833 59.1638 96.017L57.7021 96.3538ZM59.7507 105.755C60.0136 107.032 60.2668 108.291 60.5103 109.53L61.9821 109.241C61.7378 107.998 61.4838 106.734 61.2199 105.452L59.7507 105.755ZM61.5828 115.182C61.8199 116.478 62.0454 117.742 62.2593 118.972L63.7371 118.715C63.5225 117.481 63.2962 116.212 63.0583 114.912L61.5828 115.182ZM63.2132 124.685C63.4247 126.008 63.6201 127.272 63.7994 128.47L65.2829 128.247C65.1028 127.045 64.9067 125.776 64.6944 124.448L63.2132 124.685ZM64.6064 134.19C64.6944 134.86 64.7745 135.49 64.8469 136.078L66.3356 135.895C66.2628 135.303 66.1821 134.669 66.0937 133.995L64.6064 134.19ZM66.3344 136.088C66.4178 135.477 66.5201 134.86 66.6407 134.239L65.1682 133.953C65.0425 134.601 64.9355 135.245 64.8481 135.885L66.3344 136.088ZM68.1159 128.78C68.5158 127.608 68.969 126.428 69.4707 125.244L68.0896 124.659C67.5749 125.874 67.1086 127.087 66.6963 128.295L68.1159 128.78ZM71.9303 120.103C72.5186 118.997 73.1426 117.891 73.7986 116.791L72.5102 116.023C71.8423 117.143 71.2061 118.27 70.6058 119.4L71.9303 120.103ZM76.8852 111.982C77.6024 110.938 78.3438 109.903 79.1057 108.881L77.9031 107.985C77.13 109.022 76.3774 110.072 75.6488 111.133L76.8852 111.982ZM82.6498 104.388C83.4671 103.407 84.2995 102.443 85.143 101.499L84.0245 100.499C83.1695 101.456 82.3259 102.433 81.4973 103.428L82.6498 104.388ZM89.0675 97.3309C89.9752 96.4163 90.8888 95.5288 91.8039 94.6717L90.7786 93.5769C89.8499 94.4466 88.9232 95.3469 88.0028 96.2743L89.0675 97.3309ZM96.0872 90.8919C97.0935 90.0583 98.0931 89.2689 99.0802 88.5281L98.1798 87.3284C97.1725 88.0843 96.154 88.8887 95.1303 89.7368L96.0872 90.8919ZM103.771 85.3203C104.907 84.6236 106.009 84.0119 107.065 83.4925L106.403 82.1465C105.3 82.6891 104.158 83.3239 102.987 84.0413L103.771 85.3203ZM112.299 81.6217C112.928 81.5042 113.515 81.4458 114.055 81.4458V79.9458C113.408 79.9458 112.729 80.0155 112.023 80.1472L112.299 81.6217ZM114.055 81.4458C114.614 81.4458 115.221 81.5009 115.875 81.6119L116.126 80.133C115.403 80.0103 114.711 79.9458 114.055 79.9458V81.4458ZM121.316 83.3792C122.422 83.8737 123.579 84.4578 124.774 85.1259L125.506 83.8164C124.277 83.1294 123.08 82.5246 121.928 82.0097L121.316 83.3792ZM129.721 88.2207C130.762 88.9375 131.817 89.7036 132.881 90.5157L133.791 89.3235C132.709 88.4972 131.634 87.7166 130.572 86.9853L129.721 88.2207ZM137.423 94.2257C138.394 95.0698 139.363 95.9469 140.327 96.8545L141.355 95.7623C140.377 94.8414 139.393 93.9511 138.408 93.0941L137.423 94.2257ZM144.484 100.997C145.376 101.937 146.256 102.901 147.122 103.887L148.249 102.897C147.37 101.897 146.477 100.919 145.572 99.9649L144.484 100.997ZM150.866 108.407C151.667 109.435 152.448 110.481 153.205 111.541L154.426 110.67C153.656 109.592 152.862 108.529 152.049 107.485L150.866 108.407ZM156.448 116.423C157.133 117.537 157.789 118.664 158.41 119.799L159.726 119.08C159.092 117.92 158.424 116.772 157.726 115.637L156.448 116.423ZM160.997 125.042C161.523 126.24 162.006 127.444 162.443 128.652L163.853 128.142C163.405 126.901 162.909 125.666 162.37 124.439L160.997 125.042ZM164.11 134.232C164.258 134.863 164.391 135.495 164.51 136.125L165.984 135.848C165.861 135.195 165.723 134.543 165.571 133.89L164.11 134.232Z" fill="#66F2FF"/>
<path d="M18.1169 21.4158L21.9519 16.5809L25.7868 21.4158L21.9519 26.2508L18.1169 21.4158Z" fill="#66F2FF"/>
<path d="M61.9807 138.209L65.8156 133.374L69.6505 138.209L65.8156 143.044L61.9807 138.209Z" fill="#66F2FF"/>
<path d="M110.444 80.835L114.279 76L118.114 80.835L114.279 85.6699L110.444 80.835Z" fill="#66F2FF"/>
<path d="M161.412 135.835L165.247 131L169.082 135.835L165.247 140.67L161.412 135.835Z" fill="#66F2FF"/>
</svg>
