<svg width="86" height="157" viewBox="0 0 86 157" fill="none" xmlns="http://www.w3.org/2000/svg">
<rect x="0.557007" y="0.83606" width="84" height="35" rx="11.5" stroke="#F8FBFC"/>
<path d="M25.3491 82.3361V73.8761H28.7331C29.6051 73.8761 30.2771 74.0721 30.7491 74.4641C31.2291 74.8481 31.4691 75.3881 31.4691 76.0841C31.4691 76.5481 31.3491 76.9441 31.1091 77.2721C30.8691 77.6001 30.5371 77.8401 30.1131 77.9921C30.6011 78.1201 30.9811 78.3561 31.2531 78.7001C31.5331 79.0441 31.6731 79.4801 31.6731 80.0081C31.6731 80.7601 31.4291 81.3361 30.9411 81.7361C30.4531 82.1361 29.7651 82.3361 28.8771 82.3361H25.3491ZM26.3091 77.6561H28.5891C29.8611 77.6561 30.4971 77.1601 30.4971 76.1681C30.4971 75.1681 29.8611 74.6681 28.5891 74.6681H26.3091V77.6561ZM26.3091 81.5441H28.7811C30.0611 81.5441 30.7011 81.0281 30.7011 79.9961C30.7011 78.9641 30.0611 78.4481 28.7811 78.4481H26.3091V81.5441ZM35.3904 82.4441C33.9904 82.4441 33.2904 81.6721 33.2904 80.1281V76.5041H34.2624V80.1161C34.2624 80.6361 34.3664 81.0201 34.5744 81.2681C34.7904 81.5161 35.1264 81.6401 35.5824 81.6401C36.0784 81.6401 36.4824 81.4761 36.7944 81.1481C37.1064 80.8121 37.2624 80.3681 37.2624 79.8161V76.5041H38.2344V82.3361H37.2864V81.3521C37.1024 81.7041 36.8424 81.9761 36.5064 82.1681C36.1784 82.3521 35.8064 82.4441 35.3904 82.4441ZM42.393 82.4441C41.705 82.4441 41.189 82.2641 40.845 81.9041C40.501 81.5361 40.329 81.0081 40.329 80.3201V77.2601H39.189V76.5041H40.329V74.7161H41.301V76.5041H43.149V77.2601H41.301V80.2241C41.301 80.6801 41.397 81.0281 41.589 81.2681C41.781 81.5001 42.093 81.6161 42.525 81.6161C42.653 81.6161 42.781 81.6001 42.909 81.5681C43.037 81.5361 43.153 81.5041 43.257 81.4721L43.425 82.2161C43.321 82.2721 43.169 82.3241 42.969 82.3721C42.769 82.4201 42.577 82.4441 42.393 82.4441ZM46.436 82.4441C45.748 82.4441 45.232 82.2641 44.888 81.9041C44.544 81.5361 44.372 81.0081 44.372 80.3201V77.2601H43.232V76.5041H44.372V74.7161H45.344V76.5041H47.192V77.2601H45.344V80.2241C45.344 80.6801 45.44 81.0281 45.632 81.2681C45.824 81.5001 46.136 81.6161 46.568 81.6161C46.696 81.6161 46.824 81.6001 46.952 81.5681C47.08 81.5361 47.196 81.5041 47.3 81.4721L47.468 82.2161C47.364 82.2721 47.212 82.3241 47.012 82.3721C46.812 82.4201 46.62 82.4441 46.436 82.4441ZM50.6567 82.4441C50.0887 82.4441 49.5967 82.3201 49.1807 82.0721C48.7647 81.8241 48.4407 81.4761 48.2087 81.0281C47.9847 80.5721 47.8727 80.0361 47.8727 79.4201C47.8727 78.8041 47.9847 78.2721 48.2087 77.8241C48.4407 77.3681 48.7647 77.0161 49.1807 76.7681C49.5967 76.5201 50.0887 76.3961 50.6567 76.3961C51.2167 76.3961 51.7047 76.5201 52.1207 76.7681C52.5447 77.0161 52.8687 77.3681 53.0927 77.8241C53.3247 78.2721 53.4407 78.8041 53.4407 79.4201C53.4407 80.0361 53.3247 80.5721 53.0927 81.0281C52.8687 81.4761 52.5447 81.8241 52.1207 82.0721C51.7047 82.3201 51.2167 82.4441 50.6567 82.4441ZM50.6567 81.6641C51.2007 81.6641 51.6367 81.4721 51.9647 81.0881C52.2927 80.6961 52.4567 80.1401 52.4567 79.4201C52.4567 78.6921 52.2927 78.1361 51.9647 77.7521C51.6367 77.3681 51.2007 77.1761 50.6567 77.1761C50.1047 77.1761 49.6647 77.3681 49.3367 77.7521C49.0167 78.1361 48.8567 78.6921 48.8567 79.4201C48.8567 80.1401 49.0167 80.6961 49.3367 81.0881C49.6647 81.4721 50.1047 81.6641 50.6567 81.6641ZM54.9006 82.3361V76.5041H55.8486V77.5001C56.0406 77.1321 56.3126 76.8561 56.6646 76.6721C57.0166 76.4881 57.4126 76.3961 57.8526 76.3961C59.2366 76.3961 59.9286 77.1641 59.9286 78.7001V82.3361H58.9566V78.7601C58.9566 78.2161 58.8486 77.8201 58.6326 77.5721C58.4246 77.3161 58.0886 77.1881 57.6246 77.1881C57.0886 77.1881 56.6606 77.3561 56.3406 77.6921C56.0286 78.0201 55.8726 78.4601 55.8726 79.0121V82.3361H54.9006Z" fill="white"/>
<rect x="0.557007" y="60.8361" width="84" height="35" rx="11.5" stroke="#F8FBFC"/>
<rect x="0.0570068" y="120.336" width="85" height="36" rx="12" fill="#F8FBFC"/>
<path d="M25.3491 142.336V133.876H28.7331C29.6051 133.876 30.2771 134.072 30.7491 134.464C31.2291 134.848 31.4691 135.388 31.4691 136.084C31.4691 136.548 31.3491 136.944 31.1091 137.272C30.8691 137.6 30.5371 137.84 30.1131 137.992C30.6011 138.12 30.9811 138.356 31.2531 138.7C31.5331 139.044 31.6731 139.48 31.6731 140.008C31.6731 140.76 31.4291 141.336 30.9411 141.736C30.4531 142.136 29.7651 142.336 28.8771 142.336H25.3491ZM26.3091 137.656H28.5891C29.8611 137.656 30.4971 137.16 30.4971 136.168C30.4971 135.168 29.8611 134.668 28.5891 134.668H26.3091V137.656ZM26.3091 141.544H28.7811C30.0611 141.544 30.7011 141.028 30.7011 139.996C30.7011 138.964 30.0611 138.448 28.7811 138.448H26.3091V141.544ZM35.3904 142.444C33.9904 142.444 33.2904 141.672 33.2904 140.128V136.504H34.2624V140.116C34.2624 140.636 34.3664 141.02 34.5744 141.268C34.7904 141.516 35.1264 141.64 35.5824 141.64C36.0784 141.64 36.4824 141.476 36.7944 141.148C37.1064 140.812 37.2624 140.368 37.2624 139.816V136.504H38.2344V142.336H37.2864V141.352C37.1024 141.704 36.8424 141.976 36.5064 142.168C36.1784 142.352 35.8064 142.444 35.3904 142.444ZM42.393 142.444C41.705 142.444 41.189 142.264 40.845 141.904C40.501 141.536 40.329 141.008 40.329 140.32V137.26H39.189V136.504H40.329V134.716H41.301V136.504H43.149V137.26H41.301V140.224C41.301 140.68 41.397 141.028 41.589 141.268C41.781 141.5 42.093 141.616 42.525 141.616C42.653 141.616 42.781 141.6 42.909 141.568C43.037 141.536 43.153 141.504 43.257 141.472L43.425 142.216C43.321 142.272 43.169 142.324 42.969 142.372C42.769 142.42 42.577 142.444 42.393 142.444ZM46.436 142.444C45.748 142.444 45.232 142.264 44.888 141.904C44.544 141.536 44.372 141.008 44.372 140.32V137.26H43.232V136.504H44.372V134.716H45.344V136.504H47.192V137.26H45.344V140.224C45.344 140.68 45.44 141.028 45.632 141.268C45.824 141.5 46.136 141.616 46.568 141.616C46.696 141.616 46.824 141.6 46.952 141.568C47.08 141.536 47.196 141.504 47.3 141.472L47.468 142.216C47.364 142.272 47.212 142.324 47.012 142.372C46.812 142.42 46.62 142.444 46.436 142.444ZM50.6567 142.444C50.0887 142.444 49.5967 142.32 49.1807 142.072C48.7647 141.824 48.4407 141.476 48.2087 141.028C47.9847 140.572 47.8727 140.036 47.8727 139.42C47.8727 138.804 47.9847 138.272 48.2087 137.824C48.4407 137.368 48.7647 137.016 49.1807 136.768C49.5967 136.52 50.0887 136.396 50.6567 136.396C51.2167 136.396 51.7047 136.52 52.1207 136.768C52.5447 137.016 52.8687 137.368 53.0927 137.824C53.3247 138.272 53.4407 138.804 53.4407 139.42C53.4407 140.036 53.3247 140.572 53.0927 141.028C52.8687 141.476 52.5447 141.824 52.1207 142.072C51.7047 142.32 51.2167 142.444 50.6567 142.444ZM50.6567 141.664C51.2007 141.664 51.6367 141.472 51.9647 141.088C52.2927 140.696 52.4567 140.14 52.4567 139.42C52.4567 138.692 52.2927 138.136 51.9647 137.752C51.6367 137.368 51.2007 137.176 50.6567 137.176C50.1047 137.176 49.6647 137.368 49.3367 137.752C49.0167 138.136 48.8567 138.692 48.8567 139.42C48.8567 140.14 49.0167 140.696 49.3367 141.088C49.6647 141.472 50.1047 141.664 50.6567 141.664ZM54.9006 142.336V136.504H55.8486V137.5C56.0406 137.132 56.3126 136.856 56.6646 136.672C57.0166 136.488 57.4126 136.396 57.8526 136.396C59.2366 136.396 59.9286 137.164 59.9286 138.7V142.336H58.9566V138.76C58.9566 138.216 58.8486 137.82 58.6326 137.572C58.4246 137.316 58.0886 137.188 57.6246 137.188C57.0886 137.188 56.6606 137.356 56.3406 137.692C56.0286 138.02 55.8726 138.46 55.8726 139.012V142.336H54.9006Z" fill="#002F33"/>
</svg>
