<svg width="104" height="155" viewBox="0 0 104 155" fill="none" xmlns="http://www.w3.org/2000/svg">
<g clip-path="url(#clip0_53_3095)">
<path d="M11.6291 95.4093C11.7318 95.4093 11.8345 95.4061 11.9384 95.4002C14.8051 95.2314 16.9919 92.7739 16.8249 89.9105C16.5708 85.5927 16.4551 81.6587 16.4551 78.0792C16.4388 66.0757 17.7716 58.088 19.4062 52.9293C19.7264 51.9188 20.9816 52.1742 20.9816 53.2343V146.308C20.9816 150.743 24.58 154.335 29.0161 154.335C33.4535 154.335 37.0519 150.743 37.0519 146.308V87.6964H40.0641V146.308C40.0641 150.743 43.6625 154.335 48.0986 154.335C52.536 154.335 56.1344 150.743 56.1344 146.308V53.2742C56.1344 52.2136 57.4282 51.9463 57.7665 52.9515C60.4045 60.7902 60.6612 70.0154 60.6576 78.0798C60.6589 81.66 60.5426 85.5934 60.291 89.9112C60.124 92.7752 62.3122 95.2327 65.1788 95.3996C65.2821 95.4054 65.3855 95.4087 65.4875 95.4087C68.2203 95.4087 70.5111 93.2771 70.6729 90.5163C70.9342 86.0161 71.0577 81.8814 71.0577 78.0798C71.0317 58.483 67.8979 47.6373 63.6256 41.1146C61.492 37.8779 58.9939 35.8021 56.6861 34.6509C54.4817 33.5413 52.5457 33.2842 51.3701 33.2666C51.2843 33.2621 51.1998 33.2537 51.1127 33.2537H26.0039C25.9272 33.2537 25.8531 33.2615 25.7764 33.2653C24.6047 33.2796 22.6511 33.5309 20.4272 34.6503C16.9315 36.3832 13.1635 40.1705 10.5269 46.8842C7.85848 53.6225 6.06611 63.367 6.05701 78.0792C6.05831 81.8808 6.17918 86.0161 6.44434 90.5182C6.60551 93.2784 8.89765 95.4087 11.6291 95.4093Z" fill="#F8FBFC"/>
<path d="M38.5583 29.554C46.634 29.554 53.1806 23.0133 53.1806 14.945C53.1806 6.87672 46.634 0.33606 38.5583 0.33606C30.4826 0.33606 23.9359 6.87672 23.9359 14.945C23.9359 23.0133 30.4826 29.554 38.5583 29.554Z" fill="#F8FBFC"/>
</g>
<g clip-path="url(#clip1_53_3095)">
<path d="M23.8562 43.6831C20.8379 49.4087 20.1815 56.0891 22.0275 62.2935C23.8735 68.4979 28.0752 73.7329 33.7327 76.8774C39.3901 80.0218 46.0535 80.8257 52.2957 79.1168C58.5379 77.4079 63.8625 73.3221 67.1292 67.7345C67.3012 67.4404 67.4672 67.1416 67.6273 66.8382C67.7884 66.5348 67.9412 66.2286 68.088 65.9215M23.8562 43.6831L24.0772 43.7999C24.0772 43.7999 24.0772 43.7999 24.0772 43.7998M23.8562 43.6831L24.0773 43.7996C24.0773 43.7997 24.0773 43.7998 24.0772 43.7998M23.8562 43.6831C30.2376 31.6161 45.2476 26.9916 57.3142 33.3739C62.9614 36.3614 67.2357 41.4164 69.2436 47.4821C71.2514 53.5478 70.8374 60.1546 68.088 65.9215M24.0772 43.7998C21.0895 49.4676 20.4397 56.0805 22.2671 62.2222C24.0945 68.364 28.2538 73.5461 33.8541 76.6589C39.4545 79.7716 46.0506 80.5673 52.2297 78.8757C58.4088 77.184 63.6797 73.1395 66.9133 67.6083L66.9134 67.6083C67.0835 67.3174 67.2478 67.0218 67.4062 66.7215L67.4065 66.7209C67.5656 66.4213 67.7168 66.1183 67.8624 65.8139M24.0772 43.7998C30.3941 31.855 45.2527 27.2772 57.1973 33.5948C62.7875 36.5522 67.0186 41.5561 69.0062 47.5606C70.9938 53.5651 70.584 60.1053 67.8624 65.8139M67.8624 65.8139L68.088 65.9215M67.8624 65.8139C67.8624 65.8138 67.8624 65.8138 67.8625 65.8137L68.088 65.9215M52.4391 74.5216L52.4393 74.5215C57.4255 72.7884 61.5443 69.1874 63.9284 64.4771C66.3124 59.7668 66.7756 54.3147 65.2204 49.2691C64.0335 45.4167 61.7311 42.0027 58.6042 39.4588C55.4774 36.915 51.6666 35.3556 47.6539 34.9779C43.6412 34.6003 39.6067 35.4212 36.0608 37.337C32.5149 39.2528 29.6168 42.1773 27.733 45.7407C22.4806 55.675 26.2864 68.0264 36.2214 73.2861C38.5846 74.5442 41.1737 75.3212 43.8389 75.5721C46.5042 75.8229 49.1927 75.5427 51.7488 74.7477C51.9815 74.6758 52.2116 74.6004 52.4391 74.5216Z" fill="#F8FBFC" stroke="#00545B" stroke-width="0.5"/>
<path d="M97.2543 77.1275L97.287 77.1441C98.016 77.5392 98.6166 78.1352 99.0172 78.8617C99.4246 79.6006 99.6075 80.4424 99.5435 81.2838C99.4794 82.1251 99.1711 82.9295 98.6565 83.5981C98.1418 84.2668 97.4431 84.7707 96.6462 85.048L96.4966 85.0999C95.9559 85.2677 95.3874 85.3272 94.8237 85.2748C94.2586 85.2224 93.7095 85.0587 93.208 84.7932L93.208 84.7932L93.2039 84.7911L71.82 73.9701L75.8681 66.3107L97.2543 77.1275Z" fill="#F8FBFC" stroke="#00545B" stroke-width="0.5"/>
<path d="M74.5368 70.4864L66.7177 66.3512" stroke="#00545B" stroke-width="0.5"/>
<path d="M66.5751 67.1504L67.3 65.7795L74.6765 69.6802L73.9515 71.0511L66.5751 67.1504Z" fill="#F8FBFC" stroke="#00545B" stroke-width="0.5"/>
<g filter="url(#filter0_b_53_3095)">
<circle cx="45.5576" cy="55.3704" r="20.9546" transform="rotate(-19.1197 45.5576 55.3704)" fill="#AAFFF5" fill-opacity="0.5"/>
<circle cx="45.5576" cy="55.3704" r="20.8046" transform="rotate(-19.1197 45.5576 55.3704)" stroke="#00545B" stroke-width="0.3"/>
</g>
<g filter="url(#filter1_f_53_3095)">
<path d="M41.9244 47.3405C41.1521 47.2978 40.3963 47.565 39.836 48.1521C38.7154 49.3263 38.8153 51.324 40.0619 52.6291L40.5092 53.0972L44.5574 57.3361L48.6048 53.0972L49.0522 52.6291C50.2988 51.3231 50.3987 49.3263 49.278 48.1521C48.1574 46.9778 46.2523 47.0842 45.0057 48.3902L44.5574 48.8601L44.1083 48.3902C43.4855 47.7367 42.6967 47.3832 41.9235 47.3405H41.9244Z" fill="#00545B"/>
</g>
</g>
<defs>
<filter id="filter0_b_53_3095" x="18.5973" y="28.4101" width="53.9205" height="53.9206" filterUnits="userSpaceOnUse" color-interpolation-filters="sRGB">
<feFlood flood-opacity="0" result="BackgroundImageFix"/>
<feGaussianBlur in="BackgroundImage" stdDeviation="3"/>
<feComposite in2="SourceAlpha" operator="in" result="effect1_backgroundBlur_53_3095"/>
<feBlend mode="normal" in="SourceGraphic" in2="effect1_backgroundBlur_53_3095" result="shape"/>
</filter>
<filter id="filter1_f_53_3095" x="38.057" y="46.3361" width="13" height="12" filterUnits="userSpaceOnUse" color-interpolation-filters="sRGB">
<feFlood flood-opacity="0" result="BackgroundImageFix"/>
<feBlend mode="normal" in="SourceGraphic" in2="BackgroundImageFix" result="shape"/>
<feGaussianBlur stdDeviation="0.5" result="effect1_foregroundBlur_53_3095"/>
</filter>
<clipPath id="clip0_53_3095">
<rect width="65" height="154" fill="white" transform="translate(6.05701 0.33606)"/>
</clipPath>
<clipPath id="clip1_53_3095">
<rect width="70" height="70" fill="white" transform="translate(13.057 40.264) rotate(-19.1197)"/>
</clipPath>
</defs>
</svg>
